<svg xmlns="http://www.w3.org/2000/svg" viewBox="0 0 1600 900" width="1600" height="900">
  <rect width="1600" height="900" fill="#0c1929"/>
  <defs>
    <filter id="glow" x="-20%" y="-20%" width="140%" height="140%">
      <feGaussianBlur stdDeviation="3" result="blur"/>
      <feMerge><feMergeNode in="blur"/><feMergeNode in="SourceGraphic"/></feMerge>
    </filter>
  </defs>
  <path d="M1195.7,789.1 L1196.6,787.2 L1198.5,786.3 L1200.9,786.4 L1204.5,787.0 L1214.9,790.2 L1218.9,791.8 L1223.9,793.5 L1225.5,794.4 L1229.0,795.7 L1237.4,799.1 L1238.3,800.5 L1241.8,802.3 L1241.6,804.0 L1242.9,804.3 L1240.7,804.3 L1240.5,804.0 L1235.0,802.2 L1233.8,801.5 L1231.3,799.1 L1229.2,797.8 L1225.8,796.3 L1221.0,794.7 L1208.8,790.0 L1204.2,788.7 L1199.4,788.1 L1197.4,788.4 L1194.9,790.0 L1194.6,790.2 L1195.7,789.1 Z" fill="#1a2d45" stroke="#2a4a6b" stroke-width="1.5" opacity="0.9"/>
  <path d="M1185.2,793.1 L1188.6,792.7 L1190.5,792.2 L1191.4,791.6 L1192.2,791.4 L1190.3,792.4 L1187.4,793.3 L1182.6,794.0 L1181.8,794.1 L1185.2,793.1 Z" fill="#1a2d45" stroke="#2a4a6b" stroke-width="1.5" opacity="0.9"/>
  <path d="M1181.8,794.1 L1176.9,794.4 L1175.3,794.2 L1172.8,793.5 L1181.8,794.1 Z" fill="#1a2d45" stroke="#2a4a6b" stroke-width="1.5" opacity="0.9"/>
  <path d="M1170.1,793.0 L1170.5,793.1 L1169.0,792.9 L1170.1,793.0 Z" fill="#1a2d45" stroke="#2a4a6b" stroke-width="1.5" opacity="0.9"/>
  <path d="M1159.4,785.8 L1163.4,786.3 L1164.6,787.0 L1164.8,791.6 L1166.1,792.1 L1164.8,791.6 L1163.8,791.0 L1163.8,788.3 L1159.9,786.7 L1159.0,785.8 L1159.0,784.6 L1159.4,785.8 Z" fill="#1a2d45" stroke="#2a4a6b" stroke-width="1.5" opacity="0.9"/>
  <path d="M1159.2,782.1 L1159.2,782.0 L1159.6,781.8 L1159.2,782.1 Z" fill="#1a2d45" stroke="#2a4a6b" stroke-width="1.5" opacity="0.9"/>
  <path d="M1174.9,778.1 L1173.1,778.9 L1171.4,780.3 L1169.1,780.6 L1165.3,779.8 L1162.5,779.7 L1162.8,779.6 L1164.4,779.4 L1169.2,780.1 L1174.9,777.7 L1174.9,778.1 Z" fill="#1a2d45" stroke="#2a4a6b" stroke-width="1.5" opacity="0.9"/>
  <path d="M1205.8,766.6 L1201.5,767.1 L1198.3,768.7 L1203.3,772.6 L1202.4,773.1 L1193.8,771.8 L1191.8,772.5 L1186.2,773.3 L1184.8,773.8 L1182.4,774.1 L1180.8,774.8 L1183.0,773.7 L1193.0,771.3 L1194.4,770.6 L1198.5,767.6 L1201.9,766.9 L1202.6,766.7 L1206.7,766.0 L1206.9,766.0 L1205.8,766.6 Z" fill="#1a2d45" stroke="#2a4a6b" stroke-width="1.5" opacity="0.9"/>
  <path d="M1207.6,766.2 L1208.3,766.3 L1208.5,766.8 L1207.6,766.2 Z" fill="#1a2d45" stroke="#2a4a6b" stroke-width="1.5" opacity="0.9"/>
  <path d="M1251.5,773.8 L1248.4,775.2 L1246.2,776.6 L1242.4,777.5 L1239.8,778.0 L1233.9,779.2 L1228.1,779.2 L1223.2,778.6 L1221.4,778.0 L1217.1,777.0 L1215.3,776.1 L1211.0,775.4 L1208.9,773.7 L1209.1,771.1 L1207.7,769.8 L1207.7,768.9 L1208.9,768.0 L1208.8,767.6 L1210.1,770.8 L1210.9,771.6 L1212.9,772.7 L1214.1,774.2 L1215.0,774.8 L1218.9,776.1 L1226.4,776.2 L1229.6,776.6 L1234.0,776.5 L1238.1,776.0 L1244.9,776.2 L1246.5,776.0 L1250.4,774.2 L1252.0,773.1 L1251.5,773.8 Z" fill="#1a2d45" stroke="#2a4a6b" stroke-width="1.5" opacity="0.9"/>
  <path d="M1187.8,731.6 L1190.9,731.4 L1192.7,730.9 L1193.2,731.1 L1193.5,731.0 L1194.2,730.7 L1196.8,730.5 L1197.2,730.6 L1197.7,731.4 L1198.0,731.6 L1198.4,731.5 L1199.3,730.8 L1199.3,730.3 L1199.5,730.2 L1201.0,730.1 L1201.7,730.1 L1201.9,730.6 L1202.2,730.8 L1202.6,730.8 L1205.5,729.4 L1207.3,728.9 L1208.0,729.0 L1211.0,729.5 L1216.7,729.8 L1220.1,731.4 L1220.9,731.9 L1220.7,732.1 L1219.8,732.7 L1220.0,733.3 L1220.9,734.3 L1221.1,735.2 L1220.8,736.0 L1221.0,736.7 L1220.8,736.9 L1220.2,737.0 L1219.7,737.3 L1220.1,737.5 L1221.7,737.7 L1223.2,738.2 L1223.7,738.3 L1225.1,738.2 L1226.2,737.9 L1227.1,738.0 L1227.8,738.5 L1227.6,738.9 L1227.7,739.2 L1228.4,739.3 L1229.4,739.2 L1230.7,739.3 L1233.2,739.7 L1233.9,739.9 L1234.4,740.4 L1234.6,741.4 L1235.2,741.7 L1235.9,741.9 L1236.5,741.4 L1237.1,741.5 L1238.9,742.0 L1239.5,742.0 L1240.6,742.3 L1241.4,743.0 L1242.1,743.4 L1243.1,743.5 L1244.6,743.7 L1246.4,743.5 L1247.4,743.2 L1248.5,741.9 L1249.7,741.4 L1252.7,741.3 L1258.7,741.8 L1264.2,743.8 L1265.2,745.9 L1265.0,747.1 L1265.2,747.7 L1264.6,748.1 L1262.4,749.0 L1261.9,749.4 L1261.7,750.3 L1262.2,751.4 L1264.7,753.7 L1265.0,758.2 L1264.8,759.4 L1264.4,760.0 L1263.9,761.7 L1262.8,763.0 L1261.0,764.4 L1260.7,765.2 L1259.9,766.1 L1258.8,768.0 L1254.2,771.8 L1253.3,772.2 L1253.0,772.4 L1253.1,772.3 L1255.3,770.6 L1260.3,765.5 L1261.8,760.6 L1262.5,759.9 L1262.0,755.7 L1261.5,753.8 L1259.9,751.4 L1259.6,748.3 L1257.8,746.7 L1252.5,744.7 L1250.7,744.3 L1244.3,744.4 L1240.4,745.3 L1239.1,745.3 L1232.9,742.9 L1231.3,742.6 L1228.3,740.8 L1226.4,740.6 L1223.0,740.6 L1221.6,741.0 L1220.1,741.1 L1218.7,740.6 L1215.9,738.3 L1214.8,736.9 L1214.3,735.4 L1212.9,734.7 L1209.9,734.1 L1206.3,734.1 L1204.2,734.7 L1201.7,735.8 L1199.9,736.0 L1198.5,735.5 L1197.6,735.0 L1196.7,734.4 L1196.0,733.4 L1194.6,732.6 L1191.4,731.9 L1187.6,731.9 L1187.8,731.6 Z" fill="#1a2d45" stroke="#2a4a6b" stroke-width="1.5" opacity="0.9"/>
  <path d="M1179.4,722.8 L1178.7,723.3 L1178.0,723.7 L1178.1,723.9 L1176.7,724.4 L1176.2,724.9 L1176.2,725.5 L1176.5,727.2 L1176.8,727.5 L1176.7,728.2 L1177.5,729.0 L1178.3,729.5 L1178.1,730.1 L1178.1,730.6 L1178.9,731.2 L1180.2,731.7 L1180.6,731.7 L1181.5,731.6 L1182.0,731.3 L1182.6,731.3 L1185.1,731.3 L1186.3,731.6 L1186.8,731.9 L1183.4,731.9 L1181.9,732.1 L1178.9,732.2 L1177.5,731.6 L1174.5,728.1 L1173.3,725.4 L1173.1,724.9 L1174.0,724.3 L1179.9,722.6 L1180.2,722.6 L1179.4,722.8 Z" fill="#1a2d45" stroke="#2a4a6b" stroke-width="1.5" opacity="0.9"/>
  <path d="M1378.5,658.2 L1376.7,659.1 L1373.2,660.7 L1372.2,661.2 L1370.1,662.4 L1366.1,664.7 L1364.3,665.8 L1362.8,666.8 L1360.6,668.5 L1358.3,670.5 L1354.4,673.9 L1351.8,676.2 L1349.5,678.2 L1346.5,680.6 L1343.7,683.2 L1342.2,685.1 L1339.5,688.1 L1337.8,693.9 L1337.6,715.7 L1329.7,725.5 L1327.8,726.4 L1327.9,722.5 L1269.1,722.0 L1266.2,722.0 L1265.0,722.0 L1204.1,721.7 L1203.6,722.3 L1203.3,723.1 L1202.6,723.6 L1200.9,723.8 L1199.7,723.6 L1199.5,723.4 L1199.9,723.1 L1199.8,723.0 L1198.9,723.1 L1198.5,723.1 L1198.7,722.9 L1199.5,722.7 L1199.7,722.6 L1199.3,722.4 L1198.9,722.4 L1197.9,722.8 L1196.7,723.0 L1196.5,723.3 L1196.6,723.5 L1195.6,723.6 L1194.8,723.9 L1194.6,724.1 L1194.8,724.4 L1194.4,724.6 L1193.2,724.8 L1192.3,724.9 L1191.4,724.8 L1191.0,724.6 L1190.7,724.1 L1190.4,724.0 L1189.9,724.0 L1188.8,724.4 L1187.0,724.2 L1186.1,723.9 L1184.1,722.8 L1183.6,722.7 L1183.2,722.8 L1182.7,723.1 L1182.3,722.7 L1181.9,722.6 L1184.7,722.6 L1193.1,720.9 L1197.7,719.6 L1197.7,718.4 L1197.4,714.3 L1197.8,712.4 L1199.6,710.9 L1204.4,708.6 L1205.5,708.3 L1215.8,708.5 L1223.3,708.3 L1230.6,705.9 L1231.3,705.3 L1231.5,702.7 L1232.8,701.1 L1233.1,700.2 L1232.3,698.5 L1226.9,693.5 L1225.4,692.2 L1219.6,688.1 L1215.7,685.8 L1212.5,681.1 L1210.9,679.6 L1207.0,678.7 L1206.1,678.5 L1200.4,676.6 L1198.5,676.4 L1195.9,676.9 L1193.0,677.3 L1189.6,678.3 L1183.5,681.8 L1183.1,682.5 L1183.1,684.3 L1182.0,684.9 L1177.2,685.6 L1176.6,685.9 L1173.8,687.4 L1170.1,688.6 L1164.0,689.7 L1160.8,689.6 L1157.1,689.1 L1154.1,688.1 L1150.5,687.8 L1148.7,687.9 L1147.5,688.1 L1140.7,690.2 L1138.6,690.5 L1136.8,690.5 L1135.2,690.2 L1134.3,689.4 L1132.5,687.2 L1130.4,686.1 L1127.6,685.8 L1124.9,685.0 L1123.1,685.7 L1121.0,687.3 L1120.3,689.9 L1119.9,691.0 L1119.3,691.9 L1117.5,693.1 L1116.3,693.6 L1115.0,693.9 L1113.4,693.8 L1111.1,693.0 L1111.0,690.6 L1110.6,688.4 L1110.8,687.4 L1111.4,686.6 L1115.1,684.1 L1115.5,683.4 L1115.0,682.8 L1113.0,681.7 L1109.6,681.5 L1108.4,680.8 L1108.6,679.8 L1108.2,679.0 L1108.4,677.3 L1107.9,675.6 L1108.1,673.8 L1109.9,672.4 L1110.4,671.3 L1108.9,669.3 L1107.8,668.7 L1102.1,667.5 L1095.9,667.2 L1094.3,666.7 L1093.4,665.9 L1094.0,663.9 L1093.8,663.3 L1092.4,662.8 L1091.1,663.3 L1087.9,664.8 L1086.1,665.2 L1082.4,664.8 L1080.1,663.8 L1077.8,662.4 L1075.2,662.6 L1074.2,662.7 L1072.3,662.6 L1070.3,661.7 L1067.6,660.6 L1066.1,660.0 L1065.0,659.0 L1064.1,657.3 L1063.4,656.7 L1060.8,655.2 L1059.2,654.7 L1057.6,654.6 L1056.4,654.8 L1056.1,654.9 L1056.0,655.1 L1056.2,655.2 L1056.6,655.3 L1057.1,655.4 L1057.3,655.5 L1057.5,655.7 L1057.7,655.8 L1057.8,655.9 L1057.8,656.0 L1058.1,656.0 L1058.4,656.0 L1058.6,656.0 L1058.9,656.2 L1059.1,656.5 L1059.0,656.9 L1058.7,657.5 L1058.2,657.8 L1057.3,658.0 L1056.2,658.1 L1055.6,657.9 L1055.4,657.8 L1055.5,657.6 L1055.5,657.5 L1055.0,657.4 L1054.8,657.3 L1054.8,657.1 L1055.0,656.9 L1054.8,656.7 L1054.7,656.5 L1054.9,656.2 L1055.3,655.8 L1055.5,655.5 L1055.5,655.4 L1054.2,655.2 L1052.0,655.4 L1051.0,656.0 L1050.4,656.8 L1050.3,657.8 L1050.5,658.2 L1050.3,659.0 L1050.0,659.6 L1047.0,661.3 L1044.0,662.7 L1042.4,662.5 L1036.9,660.6 L1032.6,659.9 L1031.9,659.0 L1033.0,655.8 L1036.4,654.4 L1036.4,653.5 L1035.5,652.8 L1035.2,651.8 L1035.2,650.5 L1035.2,647.6 L1035.6,646.6 L1035.4,645.2 L1036.1,645.0 L1037.0,644.7 L1038.3,644.5 L1039.7,643.9 L1041.3,643.6 L1044.5,643.1 L1045.4,642.5 L1045.8,641.8 L1045.6,639.3 L1046.5,638.5 L1049.9,637.5 L1052.9,637.4 L1054.4,637.1 L1055.4,636.6 L1055.8,635.8 L1055.3,633.8 L1053.9,632.4 L1050.9,630.5 L1048.4,629.9 L1045.2,630.0 L1040.9,631.8 L1039.6,632.5 L1037.1,634.6 L1031.6,637.6 L1030.3,638.2 L1027.3,639.0 L1025.5,640.5 L1022.8,641.6 L1022.1,642.5 L1019.4,644.7 L1017.4,646.0 L1015.3,648.1 L1013.3,649.4 L1011.0,650.2 L1009.2,650.6 L1006.2,650.4 L1005.1,650.0 L1004.4,649.4 L1003.0,649.1 L996.2,650.7 L993.2,651.0 L991.2,649.7 L991.8,647.9 L993.8,646.2 L994.0,645.3 L993.6,643.8 L994.7,641.3 L994.5,640.4 L993.1,640.0 L991.0,641.0 L989.9,642.7 L987.0,645.4 L985.9,646.9 L984.0,648.1 L982.7,648.4 L980.9,648.3 L978.5,647.9 L977.6,647.8 L973.1,646.3 L971.0,642.4 L970.7,641.1 L971.2,640.3 L976.9,638.9 L982.1,638.2 L982.6,637.5 L982.5,636.6 L983.4,635.9 L983.6,635.0 L982.8,634.1 L982.3,633.5 L981.8,632.9 L979.5,631.8 L978.8,631.1 L976.3,630.0 L968.7,629.0 L967.4,629.0 L966.0,629.6 L964.9,631.0 L964.7,633.6 L963.6,635.9 L962.4,637.2 L958.7,638.7 L954.4,637.9 L953.3,636.6 L952.6,635.7 L952.5,635.3 L951.6,632.3 L951.6,631.1 L951.5,629.5 L950.7,626.8 L950.3,626.1 L949.7,624.9 L947.7,622.7 L945.8,619.9 L945.8,617.9 L946.4,615.6 L945.9,615.2 L944.6,613.9 L944.8,613.3 L945.7,612.6 L948.6,611.2 L948.2,610.5 L947.3,609.8 L944.5,608.7 L943.9,608.5 L941.1,607.6 L939.5,607.5 L937.4,607.3 L934.2,607.4 L931.9,606.3 L929.2,604.3 L925.0,602.7 L921.8,602.1 L918.2,602.1 L913.4,598.8 L909.4,594.9 L907.6,594.4 L905.8,594.3 L902.8,593.8 L889.0,588.2 L881.0,585.6 L879.6,584.0 L875.7,582.3 L871.6,581.6 L859.4,577.7 L856.7,577.7 L854.7,577.8 L851.2,578.4 L847.4,579.3 L846.4,579.5 L843.0,580.2 L842.1,580.4 L837.5,582.3 L836.0,584.4 L836.0,586.3 L836.3,589.5 L837.4,593.5 L837.5,593.7 L837.7,593.9 L838.1,594.2 L838.8,594.4 L839.8,594.7 L841.2,595.3 L841.8,596.0 L842.3,596.7 L842.1,599.7 L840.3,601.9 L840.0,602.9 L838.9,604.0 L837.9,604.2 L837.5,604.5 L837.6,605.3 L837.2,605.8 L835.1,605.9 L832.9,605.9 L830.5,605.5 L829.4,604.5 L829.1,603.2 L828.2,602.2 L826.8,601.5 L823.3,600.8 L820.3,600.8 L815.8,601.1 L812.7,601.8 L808.3,603.1 L803.0,607.3 L801.0,610.8 L801.8,615.6 L804.0,615.8 L807.4,616.3 L810.3,616.5 L810.8,616.6 L810.8,616.6 L812.5,617.0 L815.3,617.7 L815.4,617.7 L818.6,619.3 L820.9,621.3 L821.4,621.6 L823.5,623.3 L825.1,623.6 L826.9,623.7 L829.2,625.6 L831.7,627.4 L834.0,629.2 L834.5,630.1 L834.5,630.2 L834.5,630.4 L727.8,664.3 L728.1,664.6 L731.0,666.6 L728.2,667.5 L728.0,667.7 L728.0,667.8 L723.4,672.9 L702.9,668.6 L699.0,673.6 L688.6,677.1 L687.0,679.0 L683.7,678.4 L654.8,687.7 L646.3,690.4 L645.1,690.8 L640.6,692.3 L635.2,688.5 L633.0,686.8 L632.7,686.8 L612.6,673.0 L575.6,647.6 L574.3,646.7 L537.3,621.1 L524.7,612.3 L515.8,606.0 L502.8,597.0 L488.4,587.0 L477.2,579.4 L436.2,551.7 L413.3,535.7 L389.7,519.3 L380.8,513.2 L372.4,507.4 L371.8,507.0 L368.4,504.7 L357.9,497.4 L354.2,497.6 L354.2,497.0 L357.0,467.2 L359.7,424.4 L335.7,402.0 L359.7,380.6 L135.0,381.5 L136.4,315.9 L137.6,208.1 L209.9,218.0 L214.3,218.7 L255.6,219.1 L263.1,217.6 L282.8,217.7 L293.1,217.2 L300.6,217.6 L317.3,214.8 L341.5,209.3 L347.0,210.4 L348.1,212.4 L351.2,216.7 L360.0,217.6 L375.6,214.6 L378.8,218.4 L380.4,218.5 L413.5,112.0 L524.8,95.8 L582.7,137.7 L585.3,139.9 L635.4,146.4 L704.8,147.8 L706.9,147.8 L707.2,147.9 L712.5,148.9 L710.2,145.5 L720.2,146.9 L728.4,147.0 L737.6,149.1 L748.3,150.3 L756.8,149.3 L764.4,149.8 L779.7,156.0 L801.7,156.8 L814.1,159.4 L831.3,159.5 L830.0,202.7 L829.9,213.6 L829.6,298.9 L828.2,386.4 L828.2,386.9 L827.6,424.3 L828.3,424.7 L830.1,426.1 L832.0,427.6 L834.7,430.3 L836.6,431.8 L839.6,433.7 L842.5,435.6 L846.9,438.1 L849.4,440.2 L849.7,441.0 L848.8,443.4 L849.1,444.3 L849.5,444.9 L851.8,447.1 L852.3,448.8 L853.0,450.5 L854.0,452.8 L854.4,453.5 L856.5,454.9 L858.1,456.1 L859.0,456.6 L862.7,457.9 L865.2,459.0 L867.1,460.2 L867.6,460.9 L867.6,461.8 L867.1,462.5 L866.9,462.6 L862.6,464.9 L860.5,466.2 L859.2,467.7 L857.8,470.3 L857.4,471.7 L857.2,474.1 L857.0,476.3 L857.0,478.0 L857.0,478.2 L857.2,479.0 L857.3,479.5 L858.4,481.1 L858.7,481.3 L859.6,482.6 L861.7,484.2 L867.4,486.9 L869.5,488.0 L869.9,488.4 L872.2,490.4 L873.2,492.1 L873.7,494.3 L873.5,496.8 L873.0,498.4 L872.3,499.3 L871.9,500.3 L870.8,502.1 L870.1,503.8 L870.6,506.5 L871.5,507.2 L872.7,507.8 L874.3,508.7 L877.8,510.2 L882.6,511.6 L887.1,512.4 L889.6,513.2 L916.7,493.6 L952.8,467.5 L957.7,463.9 L963.1,460.0 L1032.0,480.2 L1043.1,456.9 L1047.4,453.6 L1104.2,471.0 L1140.4,481.8 L1163.8,488.8 L1217.6,467.7 L1253.7,454.1 L1297.5,437.6 L1312.2,432.1 L1330.0,455.7 L1341.0,452.5 L1366.9,445.2 L1384.9,469.7 L1389.3,460.3 L1393.3,447.8 L1439.1,450.5 L1443.3,445.0 L1465.0,448.6 L1435.4,488.9 L1437.5,492.2 L1424.2,510.9 L1421.1,515.3 L1421.1,516.4 L1419.5,516.4 L1415.1,516.6 L1406.4,516.8 L1399.2,517.3 L1392.1,517.6 L1386.6,517.9 L1382.7,518.3 L1375.8,518.6 L1373.5,519.0 L1371.1,518.9 L1370.4,518.0 L1369.3,517.8 L1365.1,518.0 L1362.9,517.7 L1360.6,516.8 L1359.9,516.6 L1358.2,516.2 L1356.8,516.3 L1356.0,516.6 L1355.8,517.3 L1352.1,519.7 L1349.5,521.1 L1348.3,522.7 L1342.3,525.1 L1335.1,527.3 L1330.3,528.8 L1328.8,529.7 L1324.9,530.6 L1323.5,532.2 L1320.5,532.3 L1313.5,535.1 L1312.3,536.7 L1311.6,538.4 L1311.9,540.1 L1310.5,542.9 L1309.3,543.4 L1307.6,544.0 L1307.3,544.9 L1309.9,546.7 L1307.9,547.7 L1308.2,548.5 L1309.1,550.7 L1309.7,553.2 L1311.0,554.5 L1316.2,553.0 L1318.8,553.5 L1321.2,555.3 L1324.6,559.9 L1325.9,560.2 L1325.4,560.7 L1327.5,564.2 L1329.4,564.9 L1329.1,568.8 L1328.5,572.3 L1327.6,575.6 L1323.4,578.7 L1326.6,579.6 L1324.9,581.7 L1322.5,583.5 L1317.3,584.9 L1311.8,585.6 L1305.4,585.1 L1300.5,583.8 L1296.8,582.6 L1297.2,578.1 L1293.9,575.4 L1286.9,569.5 L1283.6,568.8 L1283.3,565.4 L1281.4,564.0 L1280.5,561.1 L1279.2,560.1 L1279.2,557.6 L1278.6,556.5 L1276.3,555.8 L1274.5,556.6 L1272.8,556.2 L1271.4,556.7 L1272.0,558.0 L1273.1,558.4 L1275.5,558.1 L1274.1,559.2 L1271.7,559.1 L1271.1,560.1 L1270.2,560.3 L1268.8,559.0 L1267.8,558.4 L1268.0,557.4 L1265.8,557.0 L1264.5,557.7 L1265.3,558.9 L1260.0,557.6 L1261.6,559.4 L1263.5,560.6 L1264.3,561.4 L1264.4,562.1 L1268.2,563.6 L1269.6,563.2 L1271.4,563.8 L1272.9,564.5 L1274.4,567.2 L1277.2,568.3 L1278.6,570.2 L1282.1,571.6 L1285.9,573.6 L1288.6,576.7 L1290.2,579.1 L1290.7,581.7 L1291.8,585.1 L1295.2,586.9 L1294.4,588.8 L1290.4,591.4 L1289.8,593.0 L1287.5,596.2 L1286.2,598.7 L1283.5,600.1 L1282.9,603.3 L1283.9,603.9 L1283.9,606.1 L1285.6,606.3 L1285.4,607.1 L1283.5,610.1 L1282.0,610.4 L1280.9,610.2 L1274.6,606.2 L1270.4,604.1 L1267.2,603.0 L1258.4,602.3 L1255.2,602.6 L1253.6,602.1 L1250.0,601.7 L1245.2,601.4 L1238.8,601.4 L1235.4,601.2 L1233.6,600.6 L1232.5,600.4 L1229.7,601.1 L1228.3,602.1 L1227.1,602.7 L1225.5,602.4 L1224.7,602.8 L1224.2,603.1 L1243.3,609.0 L1247.4,610.0 L1254.9,610.9 L1258.4,611.6 L1263.0,612.9 L1265.1,614.9 L1272.0,618.1 L1273.0,620.4 L1273.6,622.5 L1273.2,623.9 L1271.6,625.8 L1271.3,627.3 L1271.8,630.6 L1272.6,630.9 L1276.8,632.6 L1279.1,634.0 L1278.6,635.5 L1278.8,636.7 L1278.3,637.7 L1278.4,638.9 L1277.6,641.4 L1278.8,641.9 L1280.1,641.5 L1281.9,640.6 L1285.0,638.1 L1290.0,635.3 L1296.8,632.8 L1302.0,632.4 L1310.1,631.4 L1314.1,629.6 L1314.1,628.9 L1313.7,626.3 L1311.0,624.1 L1309.2,623.6 L1309.2,622.9 L1305.3,618.2 L1301.8,616.3 L1305.0,612.3 L1308.1,612.5 L1307.5,613.8 L1310.2,614.2 L1315.9,614.3 L1320.7,614.6 L1323.1,614.2 L1320.1,611.8 L1321.8,610.8 L1323.0,609.0 L1323.1,606.7 L1325.6,605.6 L1327.8,603.7 L1331.4,603.7 L1333.4,602.4 L1338.5,600.9 L1343.3,600.4 L1347.8,597.9 L1350.4,594.9 L1354.7,592.7 L1358.2,591.3 L1361.7,589.1 L1364.1,586.9 L1366.0,583.5 L1366.7,579.4 L1366.9,576.1 L1367.5,573.0 L1366.6,569.7 L1368.0,567.6 L1372.1,565.7 L1374.6,566.6 L1376.9,567.0 L1383.4,564.2 L1383.3,561.6 L1383.1,558.6 L1384.1,554.5 L1386.7,548.6 L1388.9,547.4 L1389.9,547.4 L1390.1,546.4 L1391.9,546.4 L1392.7,547.3 L1395.4,547.4 L1397.6,549.8 L1402.7,548.8 L1402.5,548.5 L1405.7,548.6 L1410.9,549.8 L1410.9,550.6 L1413.7,550.6 L1414.7,551.6 L1416.7,553.6 L1407.3,561.4 L1406.6,563.3 L1403.0,563.5 L1402.2,562.9 L1398.8,563.1 L1395.7,564.3 L1389.9,565.7 L1389.0,567.3 L1386.7,569.2 L1382.8,570.7 L1382.2,573.0 L1384.6,573.4 L1383.4,574.8 L1386.3,576.8 L1389.9,577.4 L1392.8,576.6 L1394.7,575.7 L1399.8,575.2 L1401.2,576.3 L1398.5,578.7 L1399.9,580.9 L1401.1,580.9 L1399.6,583.1 L1397.3,583.9 L1396.1,585.6 L1389.9,585.4 L1387.2,585.6 L1386.7,586.3 L1382.8,587.0 L1379.5,589.0 L1377.3,590.7 L1376.0,593.4 L1375.1,597.3 L1373.8,602.0 L1368.3,601.8 L1362.0,602.4 L1357.2,603.5 L1355.1,605.5 L1355.0,608.3 L1352.8,611.0 L1351.7,614.2 L1348.2,616.2 L1344.6,617.9 L1340.0,619.0 L1338.7,619.6 L1337.4,620.7 L1336.5,621.5 L1336.1,622.3 L1336.0,623.1 L1336.1,624.1 L1336.8,624.7 L1338.3,626.0 L1339.6,626.7 L1341.3,627.6 L1342.8,628.4 L1344.6,629.2 L1347.5,629.9 L1350.9,630.9 L1353.2,631.2 L1355.1,631.6 L1357.2,632.2 L1358.9,633.1 L1359.6,634.9 L1359.7,636.1 L1360.0,638.2 L1363.8,640.2 L1366.7,641.6 L1369.4,644.3 L1370.5,647.3 L1377.2,654.9 L1378.7,656.6 L1380.6,657.3 L1378.5,658.2 Z" fill="#1a2d45" stroke="#2a4a6b" stroke-width="1.5" opacity="0.9"/>
  <path d="M375.5,509.1 L392.0,503.7 L414.9,499.0 L445.2,497.3 L478.5,499.9 L503.0,505.3 L540.8,520.3 L613.7,510.2 L641.7,542.9 L747.1,536.6 L827.3,541.9 L882.1,539.9 L938.5,537.9 L885.8,544.4 L870.6,549.3 L858.1,555.0 L848.8,558.0 L814.2,569.2 L803.6,575.5 L793.4,588.9 L784.2,604.8 L745.6,600.0 L711.3,603.8 L705.1,613.4 L694.7,621.2 L705.6,626.1 L707.1,631.7 L689.9,639.5 L681.7,643.4 L679.8,648.5 L675.1,651.3 L670.3,653.1 L666.4,656.8 L660.7,658.2 L658.2,660.4 L653.2,660.8 L644.8,661.1 L640.9,662.4 L638.8,665.1 L640.9,670.6 L643.6,673.7 L640.7,679.8 L638.9,682.9 L639.5,685.0 L638.3,686.8 L635.0,688.4 L633.0,686.8 L632.7,686.8 L612.6,673.0 L575.6,647.6 L574.3,646.7 L537.3,621.1 L524.7,612.3 L515.8,606.0 L502.8,597.0 L488.4,587.0 L477.2,579.4 L436.2,551.7 L413.3,535.7 L389.7,519.3 L380.8,513.2 L375.1,509.2 L375.5,509.1 Z" fill="#1e3552" stroke="#2a4a6b" stroke-width="0.8" opacity="0.85"/>
  <path d="M1197.8,712.4 L1204.4,708.6 L1215.0,708.5 L1215.8,708.5 L1223.3,708.3 L1230.6,705.9 L1231.3,705.3 L1232.7,701.2 L1232.8,701.1 L1233.1,700.2 L1232.3,698.5 L1227.9,694.4 L1227.1,693.6 L1243.2,691.8 L1239.9,683.6 L1238.8,679.5 L1239.4,675.5 L1240.2,671.2 L1242.9,666.8 L1261.3,640.1 L1278.8,641.9 L1280.1,641.5 L1281.9,640.6 L1284.7,638.4 L1290.0,635.3 L1296.8,632.8 L1302.0,632.4 L1310.1,631.4 L1314.1,629.6 L1314.1,628.9 L1313.7,626.3 L1311.0,624.1 L1309.2,623.6 L1309.2,622.9 L1305.3,618.2 L1301.8,616.3 L1305.0,612.3 L1308.1,612.5 L1307.5,613.8 L1310.2,614.2 L1315.9,614.3 L1320.7,614.6 L1323.1,614.2 L1320.1,611.8 L1321.8,610.8 L1323.0,609.0 L1323.1,606.7 L1325.6,605.6 L1327.8,603.7 L1331.4,603.7 L1338.5,600.9 L1343.3,600.4 L1347.8,597.9 L1350.4,594.9 L1358.2,591.3 L1361.7,589.1 L1364.1,586.9 L1366.0,583.5 L1366.7,579.4 L1367.5,573.0 L1366.6,569.7 L1368.0,567.6 L1372.1,565.7 L1374.6,566.6 L1376.9,567.0 L1383.4,564.2 L1383.1,558.6 L1386.7,548.6 L1389.9,547.4 L1390.1,546.4 L1392.3,546.8 L1392.7,547.3 L1395.4,547.4 L1397.6,549.8 L1402.7,548.8 L1402.5,548.5 L1405.7,548.6 L1410.9,549.8 L1410.9,550.6 L1413.7,550.6 L1414.7,551.6 L1416.7,553.6 L1407.3,561.4 L1406.6,563.3 L1402.6,563.2 L1402.2,562.9 L1398.8,563.1 L1389.9,565.7 L1386.7,569.2 L1382.8,570.7 L1382.2,573.0 L1384.6,573.4 L1383.4,574.8 L1386.3,576.8 L1389.9,577.4 L1392.8,576.6 L1394.7,575.7 L1399.8,575.2 L1401.2,576.3 L1398.5,578.7 L1399.9,580.9 L1401.1,580.9 L1399.6,583.1 L1397.3,583.9 L1396.1,585.6 L1389.9,585.4 L1387.2,585.6 L1384.5,586.7 L1382.8,587.0 L1379.5,589.0 L1377.3,590.7 L1376.0,593.4 L1373.8,602.0 L1368.3,601.8 L1362.0,602.4 L1357.2,603.5 L1355.1,605.5 L1355.0,608.3 L1352.8,611.0 L1351.7,614.2 L1344.6,617.9 L1340.0,619.0 L1338.7,619.6 L1337.4,620.7 L1336.5,621.5 L1336.1,622.3 L1336.0,623.1 L1336.1,624.1 L1336.8,624.7 L1338.3,626.0 L1339.6,626.7 L1341.3,627.6 L1342.8,628.4 L1344.6,629.2 L1347.5,629.9 L1350.9,630.9 L1351.5,631.0 L1358.9,633.1 L1360.0,638.2 L1363.8,640.2 L1366.7,641.6 L1369.9,645.6 L1370.5,647.3 L1377.2,654.9 L1378.7,656.6 L1380.6,657.3 L1378.5,658.2 L1376.7,659.1 L1373.2,660.7 L1372.2,661.2 L1370.1,662.4 L1366.1,664.7 L1364.3,665.8 L1362.8,666.8 L1360.6,668.5 L1358.3,670.5 L1354.4,673.9 L1348.8,678.8 L1346.5,680.6 L1343.7,683.2 L1339.5,688.1 L1337.8,693.9 L1337.6,715.7 L1329.7,725.5 L1327.8,726.4 L1327.9,722.5 L1269.1,722.0 L1266.2,722.0 L1265.0,722.0 L1204.1,721.7 L1199.7,722.6 L1199.3,722.4 L1198.9,722.4 L1198.5,722.6 L1184.7,722.6 L1193.1,720.9 L1197.7,719.6 L1197.8,712.4 Z" fill="#1c3350" stroke="#2a4a6b" stroke-width="0.8" opacity="0.85"/>
  <path d="M1122.3,487.4 L1122.7,494.6 L1123.7,496.7 L1116.4,502.3 L1092.6,518.2 L1094.3,521.0 L1094.8,528.9 L941.9,537.8 L827.3,541.9 L824.9,536.9 L825.5,532.5 L819.5,509.2 L812.1,496.1 L781.3,484.3 L769.2,461.7 L857.0,475.9 L857.0,476.3 L857.0,478.0 L857.0,478.2 L857.2,479.0 L857.3,479.5 L858.4,481.1 L858.7,481.3 L859.6,482.6 L861.7,484.2 L867.4,486.9 L869.5,488.0 L869.9,488.4 L872.2,490.4 L873.2,492.1 L873.7,494.3 L873.5,496.8 L873.0,498.4 L872.3,499.3 L871.9,500.3 L870.8,502.1 L870.1,503.8 L870.6,506.5 L871.5,507.2 L872.7,507.8 L874.3,508.7 L877.8,510.2 L882.6,511.6 L887.1,512.4 L889.6,513.2 L916.7,493.6 L952.8,467.5 L957.7,463.9 L963.1,460.0 L1032.0,480.2 L1043.1,456.9 L1047.4,453.6 L1104.2,471.0 L1131.8,479.2 L1122.3,487.4 Z" fill="#1f3654" stroke="#2a4a6b" stroke-width="0.8" opacity="0.85"/>
  <path d="M1423.4,511.8 L1393.1,512.1 L1281.3,516.7 L1201.1,519.6 L1094.8,528.9 L1094.3,520.9 L1092.6,518.2 L1123.7,496.6 L1122.8,494.9 L1122.3,487.4 L1131.8,479.3 L1131.9,479.3 L1140.4,481.8 L1163.8,488.8 L1217.6,467.7 L1253.7,454.1 L1297.5,437.6 L1312.2,432.1 L1330.0,455.7 L1341.0,452.5 L1366.9,445.2 L1384.9,469.7 L1389.3,460.3 L1393.3,447.8 L1439.1,450.5 L1443.3,445.0 L1465.0,448.6 L1435.4,488.9 L1437.5,492.2 L1424.6,510.3 L1423.4,511.8 Z" fill="#1d3451" stroke="#2a4a6b" stroke-width="0.8" opacity="0.85"/>
  <path d="M1423.6,511.8 L1421.1,515.3 L1421.1,516.4 L1419.5,516.4 L1415.1,516.6 L1406.4,516.8 L1399.2,517.3 L1392.1,517.6 L1386.6,517.9 L1382.7,518.3 L1375.8,518.6 L1373.5,519.0 L1371.1,518.9 L1370.4,518.0 L1369.3,517.8 L1365.1,518.0 L1362.9,517.7 L1360.6,516.8 L1359.9,516.6 L1358.2,516.2 L1356.8,516.3 L1356.0,516.6 L1355.8,517.3 L1352.1,519.7 L1349.5,521.1 L1348.3,522.7 L1342.3,525.1 L1335.1,527.3 L1330.3,528.8 L1328.8,529.7 L1324.9,530.6 L1323.5,532.2 L1320.5,532.3 L1313.5,535.1 L1312.3,536.7 L1311.6,538.4 L1311.9,540.1 L1310.5,542.9 L1309.3,543.4 L1307.6,544.0 L1307.3,544.9 L1309.9,546.7 L1307.9,547.7 L1308.2,548.5 L1309.1,550.7 L1309.7,553.2 L1311.0,554.5 L1316.2,553.0 L1318.8,553.5 L1321.2,555.3 L1324.6,559.9 L1325.9,560.2 L1325.4,560.7 L1327.5,564.2 L1329.4,564.9 L1329.1,568.8 L1328.5,572.3 L1327.6,575.6 L1323.4,578.7 L1326.6,579.6 L1324.9,581.7 L1322.5,583.5 L1317.3,584.9 L1311.8,585.6 L1305.4,585.1 L1300.5,583.8 L1296.8,582.6 L1297.2,578.1 L1293.9,575.4 L1286.9,569.5 L1283.6,568.8 L1283.3,565.4 L1281.4,564.0 L1280.5,561.1 L1279.2,560.1 L1279.2,557.6 L1278.6,556.5 L1276.3,555.8 L1274.5,556.6 L1272.8,556.2 L1271.4,556.7 L1272.0,558.0 L1273.1,558.4 L1275.5,558.1 L1274.1,559.2 L1271.7,559.1 L1271.1,560.1 L1270.2,560.3 L1268.8,559.0 L1267.8,558.4 L1268.0,557.4 L1265.8,557.0 L1264.5,557.7 L1265.3,558.9 L1260.0,557.6 L1261.6,559.4 L1263.5,560.6 L1264.3,561.4 L1264.4,562.1 L1268.2,563.6 L1269.6,563.2 L1271.4,563.8 L1272.9,564.5 L1274.4,567.2 L1277.2,568.3 L1278.6,570.2 L1282.1,571.6 L1285.9,573.6 L1288.6,576.7 L1290.2,579.1 L1290.7,581.7 L1291.8,585.1 L1295.2,586.9 L1294.4,588.8 L1290.4,591.4 L1289.8,593.0 L1287.5,596.2 L1286.2,598.7 L1283.5,600.1 L1282.9,603.3 L1283.9,603.9 L1283.9,606.1 L1285.6,606.3 L1285.4,607.1 L1283.5,610.1 L1282.0,610.4 L1280.9,610.2 L1274.6,606.2 L1270.4,604.1 L1267.2,603.0 L1258.4,602.3 L1255.2,602.6 L1253.6,602.1 L1250.0,601.7 L1245.2,601.4 L1238.8,601.4 L1235.4,601.2 L1233.6,600.6 L1232.5,600.4 L1229.7,601.1 L1228.3,602.1 L1227.1,602.7 L1225.5,602.4 L1224.7,602.8 L1224.2,603.1 L1243.3,609.0 L1247.4,610.0 L1254.9,610.9 L1258.4,611.6 L1263.0,612.9 L1265.1,614.9 L1272.0,618.1 L1273.0,620.4 L1273.6,622.5 L1273.2,623.9 L1271.6,625.8 L1271.3,627.3 L1271.8,630.6 L1272.6,630.9 L1276.8,632.6 L1279.1,634.0 L1278.6,635.5 L1278.8,636.7 L1278.3,637.7 L1278.4,638.9 L1277.6,641.4 L1278.8,641.8 L1278.7,641.9 L1261.3,640.1 L1256.7,646.8 L1231.7,647.5 L1210.3,649.1 L1195.0,647.7 L1159.0,636.9 L1141.6,632.9 L1119.4,624.3 L1101.1,613.3 L1080.0,604.1 L1052.6,592.9 L1046.5,588.1 L1040.4,579.7 L1034.3,575.2 L1022.9,570.5 L1005.4,565.4 L997.5,564.1 L980.7,564.2 L969.7,564.2 L960.3,563.8 L939.7,559.4 L899.4,553.3 L870.2,552.1 L858.1,555.0 L870.6,549.3 L886.5,544.2 L939.9,537.7 L1094.8,528.9 L1201.8,519.6 L1300.8,515.9 L1392.8,512.1 L1423.4,511.8 L1423.6,511.8 Z" fill="#203856" stroke="#2a4a6b" stroke-width="0.8" opacity="0.85"/>
  <path d="M769.2,461.7 L781.2,484.2 L812.1,496.1 L819.8,510.3 L825.4,532.2 L824.9,536.6 L827.3,541.9 L747.3,536.5 L704.6,538.7 L641.7,542.9 L613.7,510.2 L540.8,520.3 L502.7,505.2 L478.5,499.9 L445.0,497.2 L414.5,499.0 L392.0,503.7 L375.1,509.2 L372.4,507.4 L371.8,507.0 L368.4,504.7 L357.9,497.4 L354.2,497.6 L354.2,497.0 L357.0,467.2 L359.7,424.4 L335.7,402.0 L359.7,380.6 L135.0,381.5 L136.4,315.9 L137.6,208.1 L209.9,218.0 L214.3,218.7 L255.6,219.1 L263.1,217.6 L282.8,217.7 L293.1,217.2 L300.6,217.6 L317.3,214.8 L341.5,209.3 L347.0,210.4 L348.1,212.4 L351.2,216.7 L360.0,217.6 L375.6,214.6 L378.8,218.4 L380.4,218.5 L413.5,112.0 L524.8,95.8 L582.7,137.7 L585.3,139.9 L635.4,146.4 L704.8,147.8 L706.9,147.8 L707.2,147.9 L712.5,148.9 L710.2,145.5 L720.2,146.9 L728.4,147.0 L737.6,149.1 L748.3,150.3 L756.8,149.3 L764.4,149.8 L779.7,156.0 L801.7,156.8 L814.1,159.4 L831.3,159.5 L830.0,202.7 L829.9,213.6 L829.6,298.9 L828.2,386.4 L828.2,386.9 L827.6,424.3 L828.3,424.7 L830.1,426.1 L832.0,427.6 L834.7,430.3 L836.6,431.8 L839.6,433.7 L842.5,435.6 L846.9,438.1 L849.4,440.2 L849.7,441.0 L848.8,443.4 L849.1,444.3 L849.5,444.9 L851.8,447.1 L852.3,448.8 L853.0,450.5 L854.0,452.8 L854.4,453.5 L856.5,454.9 L858.1,456.1 L859.0,456.6 L862.7,457.9 L865.2,459.0 L867.1,460.2 L867.6,460.9 L867.6,461.8 L867.1,462.5 L866.9,462.6 L862.6,464.9 L860.5,466.2 L859.2,467.7 L857.8,470.3 L857.4,471.7 L857.2,474.1 L857.0,476.0 L769.2,461.7 Z" fill="#1e3553" stroke="#2a4a6b" stroke-width="0.8" opacity="0.85"/>
  <path d="M870.2,552.1 L899.6,553.4 L940.7,559.6 L960.3,563.8 L997.5,564.1 L1005.8,565.5 L1022.9,570.5 L1034.2,575.2 L1040.6,580.0 L1046.5,588.1 L1052.4,592.7 L1101.6,613.6 L1119.7,624.3 L1141.0,632.7 L1159.4,637.0 L1194.7,647.7 L1210.9,649.0 L1256.3,646.8 L1240.2,671.2 L1238.8,679.5 L1243.2,691.8 L1227.1,693.6 L1227.0,693.6 L1226.9,693.5 L1225.4,692.2 L1219.6,688.1 L1215.7,685.8 L1212.5,681.1 L1210.9,679.6 L1207.0,678.7 L1206.1,678.5 L1200.4,676.6 L1198.5,676.4 L1195.9,676.9 L1193.0,677.3 L1189.6,678.3 L1183.5,681.8 L1183.1,682.5 L1183.1,684.3 L1182.0,684.9 L1177.2,685.6 L1176.6,685.9 L1173.8,687.4 L1170.1,688.6 L1164.0,689.7 L1160.8,689.6 L1157.1,689.1 L1154.1,688.1 L1150.5,687.8 L1148.7,687.9 L1147.5,688.1 L1140.7,690.2 L1138.6,690.5 L1136.8,690.5 L1135.2,690.2 L1134.3,689.4 L1132.5,687.2 L1130.4,686.1 L1127.6,685.8 L1124.9,685.0 L1123.1,685.7 L1121.0,687.3 L1120.3,689.9 L1119.9,691.0 L1119.3,691.9 L1117.5,693.1 L1116.3,693.6 L1115.0,693.9 L1113.4,693.8 L1111.1,693.0 L1111.0,690.6 L1110.6,688.4 L1110.8,687.4 L1111.4,686.6 L1115.1,684.1 L1115.5,683.4 L1115.0,682.8 L1113.0,681.7 L1109.6,681.5 L1108.4,680.8 L1108.6,679.8 L1108.2,679.0 L1108.4,677.3 L1107.9,675.6 L1108.1,673.8 L1109.9,672.4 L1110.4,671.3 L1108.9,669.3 L1107.8,668.7 L1102.1,667.5 L1095.9,667.2 L1094.3,666.7 L1093.4,665.9 L1094.0,663.9 L1093.8,663.3 L1092.4,662.8 L1091.1,663.3 L1087.9,664.8 L1086.1,665.2 L1082.4,664.8 L1080.1,663.8 L1077.8,662.4 L1075.2,662.6 L1074.2,662.7 L1072.3,662.6 L1070.3,661.7 L1067.6,660.6 L1066.1,660.0 L1065.0,659.0 L1064.1,657.3 L1063.4,656.7 L1060.8,655.2 L1059.2,654.7 L1057.6,654.6 L1056.4,654.8 L1056.1,654.9 L1056.0,655.1 L1056.2,655.2 L1056.6,655.3 L1057.1,655.4 L1057.3,655.5 L1057.5,655.7 L1057.7,655.8 L1057.8,655.9 L1057.8,656.0 L1058.1,656.0 L1058.4,656.0 L1058.6,656.0 L1058.9,656.2 L1059.1,656.5 L1059.0,656.9 L1058.7,657.5 L1058.2,657.8 L1057.3,658.0 L1056.2,658.1 L1055.6,657.9 L1055.4,657.8 L1055.5,657.6 L1055.5,657.5 L1055.0,657.4 L1054.8,657.3 L1054.8,657.1 L1055.0,656.9 L1054.8,656.7 L1054.7,656.5 L1054.9,656.2 L1055.3,655.8 L1055.5,655.5 L1055.5,655.4 L1054.2,655.2 L1052.0,655.4 L1051.0,656.0 L1050.4,656.8 L1050.3,657.8 L1050.5,658.2 L1050.3,659.0 L1050.0,659.6 L1047.0,661.3 L1044.0,662.7 L1042.4,662.5 L1036.9,660.6 L1032.6,659.9 L1031.9,659.0 L1033.0,655.8 L1036.4,654.4 L1036.4,653.5 L1035.5,652.8 L1035.2,651.8 L1035.2,650.5 L1035.2,647.6 L1035.6,646.6 L1035.4,645.2 L1036.1,645.0 L1037.0,644.7 L1038.3,644.5 L1039.7,643.9 L1041.3,643.6 L1044.5,643.1 L1045.4,642.5 L1045.8,641.8 L1045.6,639.3 L1046.5,638.5 L1049.9,637.5 L1052.9,637.4 L1054.4,637.1 L1055.4,636.6 L1055.8,635.8 L1055.3,633.8 L1053.9,632.4 L1050.9,630.5 L1048.4,629.9 L1045.2,630.0 L1040.9,631.8 L1039.6,632.5 L1037.1,634.6 L1031.6,637.6 L1030.3,638.2 L1027.3,639.0 L1025.5,640.5 L1022.8,641.6 L1022.1,642.5 L1019.4,644.7 L1017.4,646.0 L1015.3,648.1 L1013.3,649.4 L1011.0,650.2 L1009.2,650.6 L1006.2,650.4 L1005.1,650.0 L1004.4,649.4 L1003.0,649.1 L996.2,650.7 L993.2,651.0 L991.2,649.7 L991.8,647.9 L993.8,646.2 L994.0,645.3 L993.6,643.8 L994.7,641.3 L994.5,640.4 L993.1,640.0 L991.0,641.0 L989.9,642.7 L987.0,645.4 L985.9,646.9 L984.0,648.1 L982.7,648.4 L980.9,648.3 L978.5,647.9 L977.6,647.8 L973.1,646.3 L971.0,642.4 L970.7,641.1 L971.2,640.3 L976.9,638.9 L982.1,638.2 L982.6,637.5 L982.5,636.6 L983.4,635.9 L983.6,635.0 L982.8,634.1 L982.3,633.5 L981.8,632.9 L979.5,631.8 L978.8,631.1 L976.3,630.0 L968.7,629.0 L967.4,629.0 L966.0,629.6 L964.9,631.0 L964.7,633.6 L963.6,635.9 L962.4,637.2 L958.7,638.7 L954.4,637.9 L953.3,636.6 L952.6,635.7 L952.5,635.3 L951.6,632.3 L951.6,631.1 L951.5,629.5 L950.7,626.8 L950.3,626.1 L949.7,624.9 L947.7,622.7 L945.8,619.9 L945.8,617.9 L946.4,615.6 L945.9,615.2 L944.6,613.9 L944.8,613.3 L945.7,612.6 L948.6,611.2 L948.2,610.5 L947.3,609.8 L944.5,608.7 L943.9,608.5 L941.1,607.6 L939.5,607.5 L937.4,607.3 L934.2,607.4 L931.9,606.3 L929.2,604.3 L925.0,602.7 L921.8,602.1 L918.2,602.1 L913.4,598.8 L909.4,594.9 L907.6,594.4 L905.8,594.3 L902.8,593.8 L889.0,588.2 L881.0,585.6 L879.6,584.0 L875.7,582.3 L871.6,581.6 L859.4,577.7 L856.7,577.7 L854.7,577.8 L851.2,578.4 L847.4,579.3 L846.4,579.5 L843.0,580.2 L842.1,580.4 L837.5,582.3 L836.0,584.4 L836.0,586.3 L836.3,589.5 L837.4,593.5 L837.5,593.7 L837.7,593.9 L838.1,594.2 L838.8,594.4 L839.8,594.7 L841.2,595.3 L841.8,596.0 L842.3,596.7 L842.1,599.7 L840.3,601.9 L840.0,602.9 L838.9,604.0 L837.9,604.2 L837.5,604.5 L837.6,605.3 L837.2,605.8 L835.1,605.9 L832.9,605.9 L830.5,605.5 L829.4,604.5 L829.1,603.2 L828.2,602.2 L826.8,601.5 L823.3,600.8 L820.3,600.8 L815.8,601.1 L812.7,601.8 L808.3,603.1 L803.0,607.3 L802.2,608.8 L784.2,604.8 L796.7,583.1 L803.6,575.5 L814.0,569.3 L858.3,554.9 L870.2,552.1 Z" fill="#1b3250" stroke="#2a4a6b" stroke-width="0.8" opacity="0.85"/>
  <path d="M638.3,686.8 L639.5,685.0 L638.9,682.9 L640.7,679.8 L643.6,673.7 L640.9,670.6 L638.8,665.1 L640.9,662.4 L644.8,661.1 L653.2,660.8 L658.2,660.4 L660.7,658.2 L666.4,656.8 L670.3,653.1 L675.1,651.3 L679.8,648.5 L681.7,643.4 L689.9,639.5 L707.1,631.7 L705.6,626.1 L694.7,621.2 L705.1,613.4 L711.3,603.8 L745.6,600.0 L784.2,604.8 L802.2,608.8 L801.0,610.8 L801.8,615.6 L804.0,615.8 L807.4,616.3 L810.3,616.5 L810.8,616.6 L810.8,616.6 L812.5,617.0 L815.3,617.7 L815.4,617.7 L818.6,619.3 L820.9,621.3 L821.4,621.6 L823.5,623.3 L825.1,623.6 L826.9,623.7 L829.2,625.6 L831.7,627.4 L834.0,629.2 L834.5,630.1 L834.5,630.2 L834.5,630.4 L727.8,664.3 L728.1,664.6 L731.0,666.6 L728.2,667.5 L728.0,667.7 L728.0,667.8 L723.4,672.9 L702.9,668.6 L699.0,673.6 L688.6,677.1 L687.0,679.0 L683.7,678.4 L654.8,687.7 L646.3,690.4 L645.1,690.8 L640.6,692.3 L635.2,688.5 L635.0,688.4 L638.3,686.8 Z" fill="#1c3350" stroke="#2a4a6b" stroke-width="0.8" opacity="0.85"/>
  <path d="M375.5,509.1 L392.0,503.7 L414.9,499.0 L445.2,497.3 L478.5,499.9 L503.0,505.3 L540.8,520.3 L613.7,510.2 L641.7,542.9 L747.1,536.6 L827.3,541.9 L882.1,539.9 L938.5,537.9 L885.8,544.4 L870.6,549.3 L858.1,555.0 L848.8,558.0 L814.2,569.2 L803.6,575.5 L793.4,588.9 L784.2,604.8 L745.6,600.0 L711.3,603.8 L705.1,613.4 L694.7,621.2 L705.6,626.1 L707.1,631.7 L689.9,639.5 L681.7,643.4 L679.8,648.5 L675.1,651.3 L670.3,653.1 L666.4,656.8 L660.7,658.2 L658.2,660.4 L653.2,660.8 L644.8,661.1 L640.9,662.4 L638.8,665.1 L640.9,670.6 L643.6,673.7 L640.7,679.8 L638.9,682.9 L639.5,685.0 L638.3,686.8 L635.0,688.4 L633.0,686.8 L632.7,686.8 L612.6,673.0 L575.6,647.6 L574.3,646.7 L537.3,621.1 L524.7,612.3 L515.8,606.0 L502.8,597.0 L488.4,587.0 L477.2,579.4 L436.2,551.7 L413.3,535.7 L389.7,519.3 L380.8,513.2 L375.1,509.2 L375.5,509.1 Z" fill="none" stroke="#3a6a9b" stroke-width="0.6" opacity="0.5"/>
  <path d="M1197.8,712.4 L1204.4,708.6 L1215.0,708.5 L1215.8,708.5 L1223.3,708.3 L1230.6,705.9 L1231.3,705.3 L1232.7,701.2 L1232.8,701.1 L1233.1,700.2 L1232.3,698.5 L1227.9,694.4 L1227.1,693.6 L1243.2,691.8 L1239.9,683.6 L1238.8,679.5 L1239.4,675.5 L1240.2,671.2 L1242.9,666.8 L1261.3,640.1 L1278.8,641.9 L1280.1,641.5 L1281.9,640.6 L1284.7,638.4 L1290.0,635.3 L1296.8,632.8 L1302.0,632.4 L1310.1,631.4 L1314.1,629.6 L1314.1,628.9 L1313.7,626.3 L1311.0,624.1 L1309.2,623.6 L1309.2,622.9 L1305.3,618.2 L1301.8,616.3 L1305.0,612.3 L1308.1,612.5 L1307.5,613.8 L1310.2,614.2 L1315.9,614.3 L1320.7,614.6 L1323.1,614.2 L1320.1,611.8 L1321.8,610.8 L1323.0,609.0 L1323.1,606.7 L1325.6,605.6 L1327.8,603.7 L1331.4,603.7 L1338.5,600.9 L1343.3,600.4 L1347.8,597.9 L1350.4,594.9 L1358.2,591.3 L1361.7,589.1 L1364.1,586.9 L1366.0,583.5 L1366.7,579.4 L1367.5,573.0 L1366.6,569.7 L1368.0,567.6 L1372.1,565.7 L1374.6,566.6 L1376.9,567.0 L1383.4,564.2 L1383.1,558.6 L1386.7,548.6 L1389.9,547.4 L1390.1,546.4 L1392.3,546.8 L1392.7,547.3 L1395.4,547.4 L1397.6,549.8 L1402.7,548.8 L1402.5,548.5 L1405.7,548.6 L1410.9,549.8 L1410.9,550.6 L1413.7,550.6 L1414.7,551.6 L1416.7,553.6 L1407.3,561.4 L1406.6,563.3 L1402.6,563.2 L1402.2,562.9 L1398.8,563.1 L1389.9,565.7 L1386.7,569.2 L1382.8,570.7 L1382.2,573.0 L1384.6,573.4 L1383.4,574.8 L1386.3,576.8 L1389.9,577.4 L1392.8,576.6 L1394.7,575.7 L1399.8,575.2 L1401.2,576.3 L1398.5,578.7 L1399.9,580.9 L1401.1,580.9 L1399.6,583.1 L1397.3,583.9 L1396.1,585.6 L1389.9,585.4 L1387.2,585.6 L1384.5,586.7 L1382.8,587.0 L1379.5,589.0 L1377.3,590.7 L1376.0,593.4 L1373.8,602.0 L1368.3,601.8 L1362.0,602.4 L1357.2,603.5 L1355.1,605.5 L1355.0,608.3 L1352.8,611.0 L1351.7,614.2 L1344.6,617.9 L1340.0,619.0 L1338.7,619.6 L1337.4,620.7 L1336.5,621.5 L1336.1,622.3 L1336.0,623.1 L1336.1,624.1 L1336.8,624.7 L1338.3,626.0 L1339.6,626.7 L1341.3,627.6 L1342.8,628.4 L1344.6,629.2 L1347.5,629.9 L1350.9,630.9 L1351.5,631.0 L1358.9,633.1 L1360.0,638.2 L1363.8,640.2 L1366.7,641.6 L1369.9,645.6 L1370.5,647.3 L1377.2,654.9 L1378.7,656.6 L1380.6,657.3 L1378.5,658.2 L1376.7,659.1 L1373.2,660.7 L1372.2,661.2 L1370.1,662.4 L1366.1,664.7 L1364.3,665.8 L1362.8,666.8 L1360.6,668.5 L1358.3,670.5 L1354.4,673.9 L1348.8,678.8 L1346.5,680.6 L1343.7,683.2 L1339.5,688.1 L1337.8,693.9 L1337.6,715.7 L1329.7,725.5 L1327.8,726.4 L1327.9,722.5 L1269.1,722.0 L1266.2,722.0 L1265.0,722.0 L1204.1,721.7 L1199.7,722.6 L1199.3,722.4 L1198.9,722.4 L1198.5,722.6 L1184.7,722.6 L1193.1,720.9 L1197.7,719.6 L1197.8,712.4 Z" fill="none" stroke="#3a6a9b" stroke-width="0.6" opacity="0.5"/>
  <path d="M1122.3,487.4 L1122.7,494.6 L1123.7,496.7 L1116.4,502.3 L1092.6,518.2 L1094.3,521.0 L1094.8,528.9 L941.9,537.8 L827.3,541.9 L824.9,536.9 L825.5,532.5 L819.5,509.2 L812.1,496.1 L781.3,484.3 L769.2,461.7 L857.0,475.9 L857.0,476.3 L857.0,478.0 L857.0,478.2 L857.2,479.0 L857.3,479.5 L858.4,481.1 L858.7,481.3 L859.6,482.6 L861.7,484.2 L867.4,486.9 L869.5,488.0 L869.9,488.4 L872.2,490.4 L873.2,492.1 L873.7,494.3 L873.5,496.8 L873.0,498.4 L872.3,499.3 L871.9,500.3 L870.8,502.1 L870.1,503.8 L870.6,506.5 L871.5,507.2 L872.7,507.8 L874.3,508.7 L877.8,510.2 L882.6,511.6 L887.1,512.4 L889.6,513.2 L916.7,493.6 L952.8,467.5 L957.7,463.9 L963.1,460.0 L1032.0,480.2 L1043.1,456.9 L1047.4,453.6 L1104.2,471.0 L1131.8,479.2 L1122.3,487.4 Z" fill="none" stroke="#3a6a9b" stroke-width="0.6" opacity="0.5"/>
  <path d="M1423.4,511.8 L1393.1,512.1 L1281.3,516.7 L1201.1,519.6 L1094.8,528.9 L1094.3,520.9 L1092.6,518.2 L1123.7,496.6 L1122.8,494.9 L1122.3,487.4 L1131.8,479.3 L1131.9,479.3 L1140.4,481.8 L1163.8,488.8 L1217.6,467.7 L1253.7,454.1 L1297.5,437.6 L1312.2,432.1 L1330.0,455.7 L1341.0,452.5 L1366.9,445.2 L1384.9,469.7 L1389.3,460.3 L1393.3,447.8 L1439.1,450.5 L1443.3,445.0 L1465.0,448.6 L1435.4,488.9 L1437.5,492.2 L1424.6,510.3 L1423.4,511.8 Z" fill="none" stroke="#3a6a9b" stroke-width="0.6" opacity="0.5"/>
  <path d="M1423.6,511.8 L1421.1,515.3 L1421.1,516.4 L1419.5,516.4 L1415.1,516.6 L1406.4,516.8 L1399.2,517.3 L1392.1,517.6 L1386.6,517.9 L1382.7,518.3 L1375.8,518.6 L1373.5,519.0 L1371.1,518.9 L1370.4,518.0 L1369.3,517.8 L1365.1,518.0 L1362.9,517.7 L1360.6,516.8 L1359.9,516.6 L1358.2,516.2 L1356.8,516.3 L1356.0,516.6 L1355.8,517.3 L1352.1,519.7 L1349.5,521.1 L1348.3,522.7 L1342.3,525.1 L1335.1,527.3 L1330.3,528.8 L1328.8,529.7 L1324.9,530.6 L1323.5,532.2 L1320.5,532.3 L1313.5,535.1 L1312.3,536.7 L1311.6,538.4 L1311.9,540.1 L1310.5,542.9 L1309.3,543.4 L1307.6,544.0 L1307.3,544.9 L1309.9,546.7 L1307.9,547.7 L1308.2,548.5 L1309.1,550.7 L1309.7,553.2 L1311.0,554.5 L1316.2,553.0 L1318.8,553.5 L1321.2,555.3 L1324.6,559.9 L1325.9,560.2 L1325.4,560.7 L1327.5,564.2 L1329.4,564.9 L1329.1,568.8 L1328.5,572.3 L1327.6,575.6 L1323.4,578.7 L1326.6,579.6 L1324.9,581.7 L1322.5,583.5 L1317.3,584.9 L1311.8,585.6 L1305.4,585.1 L1300.5,583.8 L1296.8,582.6 L1297.2,578.1 L1293.9,575.4 L1286.9,569.5 L1283.6,568.8 L1283.3,565.4 L1281.4,564.0 L1280.5,561.1 L1279.2,560.1 L1279.2,557.6 L1278.6,556.5 L1276.3,555.8 L1274.5,556.6 L1272.8,556.2 L1271.4,556.7 L1272.0,558.0 L1273.1,558.4 L1275.5,558.1 L1274.1,559.2 L1271.7,559.1 L1271.1,560.1 L1270.2,560.3 L1268.8,559.0 L1267.8,558.4 L1268.0,557.4 L1265.8,557.0 L1264.5,557.7 L1265.3,558.9 L1260.0,557.6 L1261.6,559.4 L1263.5,560.6 L1264.3,561.4 L1264.4,562.1 L1268.2,563.6 L1269.6,563.2 L1271.4,563.8 L1272.9,564.5 L1274.4,567.2 L1277.2,568.3 L1278.6,570.2 L1282.1,571.6 L1285.9,573.6 L1288.6,576.7 L1290.2,579.1 L1290.7,581.7 L1291.8,585.1 L1295.2,586.9 L1294.4,588.8 L1290.4,591.4 L1289.8,593.0 L1287.5,596.2 L1286.2,598.7 L1283.5,600.1 L1282.9,603.3 L1283.9,603.9 L1283.9,606.1 L1285.6,606.3 L1285.4,607.1 L1283.5,610.1 L1282.0,610.4 L1280.9,610.2 L1274.6,606.2 L1270.4,604.1 L1267.2,603.0 L1258.4,602.3 L1255.2,602.6 L1253.6,602.1 L1250.0,601.7 L1245.2,601.4 L1238.8,601.4 L1235.4,601.2 L1233.6,600.6 L1232.5,600.4 L1229.7,601.1 L1228.3,602.1 L1227.1,602.7 L1225.5,602.4 L1224.7,602.8 L1224.2,603.1 L1243.3,609.0 L1247.4,610.0 L1254.9,610.9 L1258.4,611.6 L1263.0,612.9 L1265.1,614.9 L1272.0,618.1 L1273.0,620.4 L1273.6,622.5 L1273.2,623.9 L1271.6,625.8 L1271.3,627.3 L1271.8,630.6 L1272.6,630.9 L1276.8,632.6 L1279.1,634.0 L1278.6,635.5 L1278.8,636.7 L1278.3,637.7 L1278.4,638.9 L1277.6,641.4 L1278.8,641.8 L1278.7,641.9 L1261.3,640.1 L1256.7,646.8 L1231.7,647.5 L1210.3,649.1 L1195.0,647.7 L1159.0,636.9 L1141.6,632.9 L1119.4,624.3 L1101.1,613.3 L1080.0,604.1 L1052.6,592.9 L1046.5,588.1 L1040.4,579.7 L1034.3,575.2 L1022.9,570.5 L1005.4,565.4 L997.5,564.1 L980.7,564.2 L969.7,564.2 L960.3,563.8 L939.7,559.4 L899.4,553.3 L870.2,552.1 L858.1,555.0 L870.6,549.3 L886.5,544.2 L939.9,537.7 L1094.8,528.9 L1201.8,519.6 L1300.8,515.9 L1392.8,512.1 L1423.4,511.8 L1423.6,511.8 Z" fill="none" stroke="#3a6a9b" stroke-width="0.6" opacity="0.5"/>
  <path d="M769.2,461.7 L781.2,484.2 L812.1,496.1 L819.8,510.3 L825.4,532.2 L824.9,536.6 L827.3,541.9 L747.3,536.5 L704.6,538.7 L641.7,542.9 L613.7,510.2 L540.8,520.3 L502.7,505.2 L478.5,499.9 L445.0,497.2 L414.5,499.0 L392.0,503.7 L375.1,509.2 L372.4,507.4 L371.8,507.0 L368.4,504.7 L357.9,497.4 L354.2,497.6 L354.2,497.0 L357.0,467.2 L359.7,424.4 L335.7,402.0 L359.7,380.6 L135.0,381.5 L136.4,315.9 L137.6,208.1 L209.9,218.0 L214.3,218.7 L255.6,219.1 L263.1,217.6 L282.8,217.7 L293.1,217.2 L300.6,217.6 L317.3,214.8 L341.5,209.3 L347.0,210.4 L348.1,212.4 L351.2,216.7 L360.0,217.6 L375.6,214.6 L378.8,218.4 L380.4,218.5 L413.5,112.0 L524.8,95.8 L582.7,137.7 L585.3,139.9 L635.4,146.4 L704.8,147.8 L706.9,147.8 L707.2,147.9 L712.5,148.9 L710.2,145.5 L720.2,146.9 L728.4,147.0 L737.6,149.1 L748.3,150.3 L756.8,149.3 L764.4,149.8 L779.7,156.0 L801.7,156.8 L814.1,159.4 L831.3,159.5 L830.0,202.7 L829.9,213.6 L829.6,298.9 L828.2,386.4 L828.2,386.9 L827.6,424.3 L828.3,424.7 L830.1,426.1 L832.0,427.6 L834.7,430.3 L836.6,431.8 L839.6,433.7 L842.5,435.6 L846.9,438.1 L849.4,440.2 L849.7,441.0 L848.8,443.4 L849.1,444.3 L849.5,444.9 L851.8,447.1 L852.3,448.8 L853.0,450.5 L854.0,452.8 L854.4,453.5 L856.5,454.9 L858.1,456.1 L859.0,456.6 L862.7,457.9 L865.2,459.0 L867.1,460.2 L867.6,460.9 L867.6,461.8 L867.1,462.5 L866.9,462.6 L862.6,464.9 L860.5,466.2 L859.2,467.7 L857.8,470.3 L857.4,471.7 L857.2,474.1 L857.0,476.0 L769.2,461.7 Z" fill="none" stroke="#3a6a9b" stroke-width="0.6" opacity="0.5"/>
  <path d="M870.2,552.1 L899.6,553.4 L940.7,559.6 L960.3,563.8 L997.5,564.1 L1005.8,565.5 L1022.9,570.5 L1034.2,575.2 L1040.6,580.0 L1046.5,588.1 L1052.4,592.7 L1101.6,613.6 L1119.7,624.3 L1141.0,632.7 L1159.4,637.0 L1194.7,647.7 L1210.9,649.0 L1256.3,646.8 L1240.2,671.2 L1238.8,679.5 L1243.2,691.8 L1227.1,693.6 L1227.0,693.6 L1226.9,693.5 L1225.4,692.2 L1219.6,688.1 L1215.7,685.8 L1212.5,681.1 L1210.9,679.6 L1207.0,678.7 L1206.1,678.5 L1200.4,676.6 L1198.5,676.4 L1195.9,676.9 L1193.0,677.3 L1189.6,678.3 L1183.5,681.8 L1183.1,682.5 L1183.1,684.3 L1182.0,684.9 L1177.2,685.6 L1176.6,685.9 L1173.8,687.4 L1170.1,688.6 L1164.0,689.7 L1160.8,689.6 L1157.1,689.1 L1154.1,688.1 L1150.5,687.8 L1148.7,687.9 L1147.5,688.1 L1140.7,690.2 L1138.6,690.5 L1136.8,690.5 L1135.2,690.2 L1134.3,689.4 L1132.5,687.2 L1130.4,686.1 L1127.6,685.8 L1124.9,685.0 L1123.1,685.7 L1121.0,687.3 L1120.3,689.9 L1119.9,691.0 L1119.3,691.9 L1117.5,693.1 L1116.3,693.6 L1115.0,693.9 L1113.4,693.8 L1111.1,693.0 L1111.0,690.6 L1110.6,688.4 L1110.8,687.4 L1111.4,686.6 L1115.1,684.1 L1115.5,683.4 L1115.0,682.8 L1113.0,681.7 L1109.6,681.5 L1108.4,680.8 L1108.6,679.8 L1108.2,679.0 L1108.4,677.3 L1107.9,675.6 L1108.1,673.8 L1109.9,672.4 L1110.4,671.3 L1108.9,669.3 L1107.8,668.7 L1102.1,667.5 L1095.9,667.2 L1094.3,666.7 L1093.4,665.9 L1094.0,663.9 L1093.8,663.3 L1092.4,662.8 L1091.1,663.3 L1087.9,664.8 L1086.1,665.2 L1082.4,664.8 L1080.1,663.8 L1077.8,662.4 L1075.2,662.6 L1074.2,662.7 L1072.3,662.6 L1070.3,661.7 L1067.6,660.6 L1066.1,660.0 L1065.0,659.0 L1064.1,657.3 L1063.4,656.7 L1060.8,655.2 L1059.2,654.7 L1057.6,654.6 L1056.4,654.8 L1056.1,654.9 L1056.0,655.1 L1056.2,655.2 L1056.6,655.3 L1057.1,655.4 L1057.3,655.5 L1057.5,655.7 L1057.7,655.8 L1057.8,655.9 L1057.8,656.0 L1058.1,656.0 L1058.4,656.0 L1058.6,656.0 L1058.9,656.2 L1059.1,656.5 L1059.0,656.9 L1058.7,657.5 L1058.2,657.8 L1057.3,658.0 L1056.2,658.1 L1055.6,657.9 L1055.4,657.8 L1055.5,657.6 L1055.5,657.5 L1055.0,657.4 L1054.8,657.3 L1054.8,657.1 L1055.0,656.9 L1054.8,656.7 L1054.7,656.5 L1054.9,656.2 L1055.3,655.8 L1055.5,655.5 L1055.5,655.4 L1054.2,655.2 L1052.0,655.4 L1051.0,656.0 L1050.4,656.8 L1050.3,657.8 L1050.5,658.2 L1050.3,659.0 L1050.0,659.6 L1047.0,661.3 L1044.0,662.7 L1042.4,662.5 L1036.9,660.6 L1032.6,659.9 L1031.9,659.0 L1033.0,655.8 L1036.4,654.4 L1036.4,653.5 L1035.5,652.8 L1035.2,651.8 L1035.2,650.5 L1035.2,647.6 L1035.6,646.6 L1035.4,645.2 L1036.1,645.0 L1037.0,644.7 L1038.3,644.5 L1039.7,643.9 L1041.3,643.6 L1044.5,643.1 L1045.4,642.5 L1045.8,641.8 L1045.6,639.3 L1046.5,638.5 L1049.9,637.5 L1052.9,637.4 L1054.4,637.1 L1055.4,636.6 L1055.8,635.8 L1055.3,633.8 L1053.9,632.4 L1050.9,630.5 L1048.4,629.9 L1045.2,630.0 L1040.9,631.8 L1039.6,632.5 L1037.1,634.6 L1031.6,637.6 L1030.3,638.2 L1027.3,639.0 L1025.5,640.5 L1022.8,641.6 L1022.1,642.5 L1019.4,644.7 L1017.4,646.0 L1015.3,648.1 L1013.3,649.4 L1011.0,650.2 L1009.2,650.6 L1006.2,650.4 L1005.1,650.0 L1004.4,649.4 L1003.0,649.1 L996.2,650.7 L993.2,651.0 L991.2,649.7 L991.8,647.9 L993.8,646.2 L994.0,645.3 L993.6,643.8 L994.7,641.3 L994.5,640.4 L993.1,640.0 L991.0,641.0 L989.9,642.7 L987.0,645.4 L985.9,646.9 L984.0,648.1 L982.7,648.4 L980.9,648.3 L978.5,647.9 L977.6,647.8 L973.1,646.3 L971.0,642.4 L970.7,641.1 L971.2,640.3 L976.9,638.9 L982.1,638.2 L982.6,637.5 L982.5,636.6 L983.4,635.9 L983.6,635.0 L982.8,634.1 L982.3,633.5 L981.8,632.9 L979.5,631.8 L978.8,631.1 L976.3,630.0 L968.7,629.0 L967.4,629.0 L966.0,629.6 L964.9,631.0 L964.7,633.6 L963.6,635.9 L962.4,637.2 L958.7,638.7 L954.4,637.9 L953.3,636.6 L952.6,635.7 L952.5,635.3 L951.6,632.3 L951.6,631.1 L951.5,629.5 L950.7,626.8 L950.3,626.1 L949.7,624.9 L947.7,622.7 L945.8,619.9 L945.8,617.9 L946.4,615.6 L945.9,615.2 L944.6,613.9 L944.8,613.3 L945.7,612.6 L948.6,611.2 L948.2,610.5 L947.3,609.8 L944.5,608.7 L943.9,608.5 L941.1,607.6 L939.5,607.5 L937.4,607.3 L934.2,607.4 L931.9,606.3 L929.2,604.3 L925.0,602.7 L921.8,602.1 L918.2,602.1 L913.4,598.8 L909.4,594.9 L907.6,594.4 L905.8,594.3 L902.8,593.8 L889.0,588.2 L881.0,585.6 L879.6,584.0 L875.7,582.3 L871.6,581.6 L859.4,577.7 L856.7,577.7 L854.7,577.8 L851.2,578.4 L847.4,579.3 L846.4,579.5 L843.0,580.2 L842.1,580.4 L837.5,582.3 L836.0,584.4 L836.0,586.3 L836.3,589.5 L837.4,593.5 L837.5,593.7 L837.7,593.9 L838.1,594.2 L838.8,594.4 L839.8,594.7 L841.2,595.3 L841.8,596.0 L842.3,596.7 L842.1,599.7 L840.3,601.9 L840.0,602.9 L838.9,604.0 L837.9,604.2 L837.5,604.5 L837.6,605.3 L837.2,605.8 L835.1,605.9 L832.9,605.9 L830.5,605.5 L829.4,604.5 L829.1,603.2 L828.2,602.2 L826.8,601.5 L823.3,600.8 L820.3,600.8 L815.8,601.1 L812.7,601.8 L808.3,603.1 L803.0,607.3 L802.2,608.8 L784.2,604.8 L796.7,583.1 L803.6,575.5 L814.0,569.3 L858.3,554.9 L870.2,552.1 Z" fill="none" stroke="#3a6a9b" stroke-width="0.6" opacity="0.5"/>
  <path d="M638.3,686.8 L639.5,685.0 L638.9,682.9 L640.7,679.8 L643.6,673.7 L640.9,670.6 L638.8,665.1 L640.9,662.4 L644.8,661.1 L653.2,660.8 L658.2,660.4 L660.7,658.2 L666.4,656.8 L670.3,653.1 L675.1,651.3 L679.8,648.5 L681.7,643.4 L689.9,639.5 L707.1,631.7 L705.6,626.1 L694.7,621.2 L705.1,613.4 L711.3,603.8 L745.6,600.0 L784.2,604.8 L802.2,608.8 L801.0,610.8 L801.8,615.6 L804.0,615.8 L807.4,616.3 L810.3,616.5 L810.8,616.6 L810.8,616.6 L812.5,617.0 L815.3,617.7 L815.4,617.7 L818.6,619.3 L820.9,621.3 L821.4,621.6 L823.5,623.3 L825.1,623.6 L826.9,623.7 L829.2,625.6 L831.7,627.4 L834.0,629.2 L834.5,630.1 L834.5,630.2 L834.5,630.4 L727.8,664.3 L728.1,664.6 L731.0,666.6 L728.2,667.5 L728.0,667.7 L728.0,667.8 L723.4,672.9 L702.9,668.6 L699.0,673.6 L688.6,677.1 L687.0,679.0 L683.7,678.4 L654.8,687.7 L646.3,690.4 L645.1,690.8 L640.6,692.3 L635.2,688.5 L635.0,688.4 L638.3,686.8 Z" fill="none" stroke="#3a6a9b" stroke-width="0.6" opacity="0.5"/>
  <path d="M1195.7,789.1 L1196.6,787.2 L1198.5,786.3 L1200.9,786.4 L1204.5,787.0 L1214.9,790.2 L1218.9,791.8 L1223.9,793.5 L1225.5,794.4 L1229.0,795.7 L1237.4,799.1 L1238.3,800.5 L1241.8,802.3 L1241.6,804.0 L1242.9,804.3 L1240.7,804.3 L1240.5,804.0 L1235.0,802.2 L1233.8,801.5 L1231.3,799.1 L1229.2,797.8 L1225.8,796.3 L1221.0,794.7 L1208.8,790.0 L1204.2,788.7 L1199.4,788.1 L1197.4,788.4 L1194.9,790.0 L1194.6,790.2 L1195.7,789.1 Z" fill="none" stroke="#4a8abf" stroke-width="2" opacity="0.7"/>
  <path d="M1185.2,793.1 L1188.6,792.7 L1190.5,792.2 L1191.4,791.6 L1192.2,791.4 L1190.3,792.4 L1187.4,793.3 L1182.6,794.0 L1181.8,794.1 L1185.2,793.1 Z" fill="none" stroke="#4a8abf" stroke-width="2" opacity="0.7"/>
  <path d="M1181.8,794.1 L1176.9,794.4 L1175.3,794.2 L1172.8,793.5 L1181.8,794.1 Z" fill="none" stroke="#4a8abf" stroke-width="2" opacity="0.7"/>
  <path d="M1170.1,793.0 L1170.5,793.1 L1169.0,792.9 L1170.1,793.0 Z" fill="none" stroke="#4a8abf" stroke-width="2" opacity="0.7"/>
  <path d="M1159.4,785.8 L1163.4,786.3 L1164.6,787.0 L1164.8,791.6 L1166.1,792.1 L1164.8,791.6 L1163.8,791.0 L1163.8,788.3 L1159.9,786.7 L1159.0,785.8 L1159.0,784.6 L1159.4,785.8 Z" fill="none" stroke="#4a8abf" stroke-width="2" opacity="0.7"/>
  <path d="M1159.2,782.1 L1159.2,782.0 L1159.6,781.8 L1159.2,782.1 Z" fill="none" stroke="#4a8abf" stroke-width="2" opacity="0.7"/>
  <path d="M1174.9,778.1 L1173.1,778.9 L1171.4,780.3 L1169.1,780.6 L1165.3,779.8 L1162.5,779.7 L1162.8,779.6 L1164.4,779.4 L1169.2,780.1 L1174.9,777.7 L1174.9,778.1 Z" fill="none" stroke="#4a8abf" stroke-width="2" opacity="0.7"/>
  <path d="M1205.8,766.6 L1201.5,767.1 L1198.3,768.7 L1203.3,772.6 L1202.4,773.1 L1193.8,771.8 L1191.8,772.5 L1186.2,773.3 L1184.8,773.8 L1182.4,774.1 L1180.8,774.8 L1183.0,773.7 L1193.0,771.3 L1194.4,770.6 L1198.5,767.6 L1201.9,766.9 L1202.6,766.7 L1206.7,766.0 L1206.9,766.0 L1205.8,766.6 Z" fill="none" stroke="#4a8abf" stroke-width="2" opacity="0.7"/>
  <path d="M1207.6,766.2 L1208.3,766.3 L1208.5,766.8 L1207.6,766.2 Z" fill="none" stroke="#4a8abf" stroke-width="2" opacity="0.7"/>
  <path d="M1251.5,773.8 L1248.4,775.2 L1246.2,776.6 L1242.4,777.5 L1239.8,778.0 L1233.9,779.2 L1228.1,779.2 L1223.2,778.6 L1221.4,778.0 L1217.1,777.0 L1215.3,776.1 L1211.0,775.4 L1208.9,773.7 L1209.1,771.1 L1207.7,769.8 L1207.7,768.9 L1208.9,768.0 L1208.8,767.6 L1210.1,770.8 L1210.9,771.6 L1212.9,772.7 L1214.1,774.2 L1215.0,774.8 L1218.9,776.1 L1226.4,776.2 L1229.6,776.6 L1234.0,776.5 L1238.1,776.0 L1244.9,776.2 L1246.5,776.0 L1250.4,774.2 L1252.0,773.1 L1251.5,773.8 Z" fill="none" stroke="#4a8abf" stroke-width="2" opacity="0.7"/>
  <path d="M1187.8,731.6 L1190.9,731.4 L1192.7,730.9 L1193.2,731.1 L1193.5,731.0 L1194.2,730.7 L1196.8,730.5 L1197.2,730.6 L1197.7,731.4 L1198.0,731.6 L1198.4,731.5 L1199.3,730.8 L1199.3,730.3 L1199.5,730.2 L1201.0,730.1 L1201.7,730.1 L1201.9,730.6 L1202.2,730.8 L1202.6,730.8 L1205.5,729.4 L1207.3,728.9 L1208.0,729.0 L1211.0,729.5 L1216.7,729.8 L1220.1,731.4 L1220.9,731.9 L1220.7,732.1 L1219.8,732.7 L1220.0,733.3 L1220.9,734.3 L1221.1,735.2 L1220.8,736.0 L1221.0,736.7 L1220.8,736.9 L1220.2,737.0 L1219.7,737.3 L1220.1,737.5 L1221.7,737.7 L1223.2,738.2 L1223.7,738.3 L1225.1,738.2 L1226.2,737.9 L1227.1,738.0 L1227.8,738.5 L1227.6,738.9 L1227.7,739.2 L1228.4,739.3 L1229.4,739.2 L1230.7,739.3 L1233.2,739.7 L1233.9,739.9 L1234.4,740.4 L1234.6,741.4 L1235.2,741.7 L1235.9,741.9 L1236.5,741.4 L1237.1,741.5 L1238.9,742.0 L1239.5,742.0 L1240.6,742.3 L1241.4,743.0 L1242.1,743.4 L1243.1,743.5 L1244.6,743.7 L1246.4,743.5 L1247.4,743.2 L1248.5,741.9 L1249.7,741.4 L1252.7,741.3 L1258.7,741.8 L1264.2,743.8 L1265.2,745.9 L1265.0,747.1 L1265.2,747.7 L1264.6,748.1 L1262.4,749.0 L1261.9,749.4 L1261.7,750.3 L1262.2,751.4 L1264.7,753.7 L1265.0,758.2 L1264.8,759.4 L1264.4,760.0 L1263.9,761.7 L1262.8,763.0 L1261.0,764.4 L1260.7,765.2 L1259.9,766.1 L1258.8,768.0 L1254.2,771.8 L1253.3,772.2 L1253.0,772.4 L1253.1,772.3 L1255.3,770.6 L1260.3,765.5 L1261.8,760.6 L1262.5,759.9 L1262.0,755.7 L1261.5,753.8 L1259.9,751.4 L1259.6,748.3 L1257.8,746.7 L1252.5,744.7 L1250.7,744.3 L1244.3,744.4 L1240.4,745.3 L1239.1,745.3 L1232.9,742.9 L1231.3,742.6 L1228.3,740.8 L1226.4,740.6 L1223.0,740.6 L1221.6,741.0 L1220.1,741.1 L1218.7,740.6 L1215.9,738.3 L1214.8,736.9 L1214.3,735.4 L1212.9,734.7 L1209.9,734.1 L1206.3,734.1 L1204.2,734.7 L1201.7,735.8 L1199.9,736.0 L1198.5,735.5 L1197.6,735.0 L1196.7,734.4 L1196.0,733.4 L1194.6,732.6 L1191.4,731.9 L1187.6,731.9 L1187.8,731.6 Z" fill="none" stroke="#4a8abf" stroke-width="2" opacity="0.7"/>
  <path d="M1179.4,722.8 L1178.7,723.3 L1178.0,723.7 L1178.1,723.9 L1176.7,724.4 L1176.2,724.9 L1176.2,725.5 L1176.5,727.2 L1176.8,727.5 L1176.7,728.2 L1177.5,729.0 L1178.3,729.5 L1178.1,730.1 L1178.1,730.6 L1178.9,731.2 L1180.2,731.7 L1180.6,731.7 L1181.5,731.6 L1182.0,731.3 L1182.6,731.3 L1185.1,731.3 L1186.3,731.6 L1186.8,731.9 L1183.4,731.9 L1181.9,732.1 L1178.9,732.2 L1177.5,731.6 L1174.5,728.1 L1173.3,725.4 L1173.1,724.9 L1174.0,724.3 L1179.9,722.6 L1180.2,722.6 L1179.4,722.8 Z" fill="none" stroke="#4a8abf" stroke-width="2" opacity="0.7"/>
  <path d="M1378.5,658.2 L1376.7,659.1 L1373.2,660.7 L1372.2,661.2 L1370.1,662.4 L1366.1,664.7 L1364.3,665.8 L1362.8,666.8 L1360.6,668.5 L1358.3,670.5 L1354.4,673.9 L1351.8,676.2 L1349.5,678.2 L1346.5,680.6 L1343.7,683.2 L1342.2,685.1 L1339.5,688.1 L1337.8,693.9 L1337.6,715.7 L1329.7,725.5 L1327.8,726.4 L1327.9,722.5 L1269.1,722.0 L1266.2,722.0 L1265.0,722.0 L1204.1,721.7 L1203.6,722.3 L1203.3,723.1 L1202.6,723.6 L1200.9,723.8 L1199.7,723.6 L1199.5,723.4 L1199.9,723.1 L1199.8,723.0 L1198.9,723.1 L1198.5,723.1 L1198.7,722.9 L1199.5,722.7 L1199.7,722.6 L1199.3,722.4 L1198.9,722.4 L1197.9,722.8 L1196.7,723.0 L1196.5,723.3 L1196.6,723.5 L1195.6,723.6 L1194.8,723.9 L1194.6,724.1 L1194.8,724.4 L1194.4,724.6 L1193.2,724.8 L1192.3,724.9 L1191.4,724.8 L1191.0,724.6 L1190.7,724.1 L1190.4,724.0 L1189.9,724.0 L1188.8,724.4 L1187.0,724.2 L1186.1,723.9 L1184.1,722.8 L1183.6,722.7 L1183.2,722.8 L1182.7,723.1 L1182.3,722.7 L1181.9,722.6 L1184.7,722.6 L1193.1,720.9 L1197.7,719.6 L1197.7,718.4 L1197.4,714.3 L1197.8,712.4 L1199.6,710.9 L1204.4,708.6 L1205.5,708.3 L1215.8,708.5 L1223.3,708.3 L1230.6,705.9 L1231.3,705.3 L1231.5,702.7 L1232.8,701.1 L1233.1,700.2 L1232.3,698.5 L1226.9,693.5 L1225.4,692.2 L1219.6,688.1 L1215.7,685.8 L1212.5,681.1 L1210.9,679.6 L1207.0,678.7 L1206.1,678.5 L1200.4,676.6 L1198.5,676.4 L1195.9,676.9 L1193.0,677.3 L1189.6,678.3 L1183.5,681.8 L1183.1,682.5 L1183.1,684.3 L1182.0,684.9 L1177.2,685.6 L1176.6,685.9 L1173.8,687.4 L1170.1,688.6 L1164.0,689.7 L1160.8,689.6 L1157.1,689.1 L1154.1,688.1 L1150.5,687.8 L1148.7,687.9 L1147.5,688.1 L1140.7,690.2 L1138.6,690.5 L1136.8,690.5 L1135.2,690.2 L1134.3,689.4 L1132.5,687.2 L1130.4,686.1 L1127.6,685.8 L1124.9,685.0 L1123.1,685.7 L1121.0,687.3 L1120.3,689.9 L1119.9,691.0 L1119.3,691.9 L1117.5,693.1 L1116.3,693.6 L1115.0,693.9 L1113.4,693.8 L1111.1,693.0 L1111.0,690.6 L1110.6,688.4 L1110.8,687.4 L1111.4,686.6 L1115.1,684.1 L1115.5,683.4 L1115.0,682.8 L1113.0,681.7 L1109.6,681.5 L1108.4,680.8 L1108.6,679.8 L1108.2,679.0 L1108.4,677.3 L1107.9,675.6 L1108.1,673.8 L1109.9,672.4 L1110.4,671.3 L1108.9,669.3 L1107.8,668.7 L1102.1,667.5 L1095.9,667.2 L1094.3,666.7 L1093.4,665.9 L1094.0,663.9 L1093.8,663.3 L1092.4,662.8 L1091.1,663.3 L1087.9,664.8 L1086.1,665.2 L1082.4,664.8 L1080.1,663.8 L1077.8,662.4 L1075.2,662.6 L1074.2,662.7 L1072.3,662.6 L1070.3,661.7 L1067.6,660.6 L1066.1,660.0 L1065.0,659.0 L1064.1,657.3 L1063.4,656.7 L1060.8,655.2 L1059.2,654.7 L1057.6,654.6 L1056.4,654.8 L1056.1,654.9 L1056.0,655.1 L1056.2,655.2 L1056.6,655.3 L1057.1,655.4 L1057.3,655.5 L1057.5,655.7 L1057.7,655.8 L1057.8,655.9 L1057.8,656.0 L1058.1,656.0 L1058.4,656.0 L1058.6,656.0 L1058.9,656.2 L1059.1,656.5 L1059.0,656.9 L1058.7,657.5 L1058.2,657.8 L1057.3,658.0 L1056.2,658.1 L1055.6,657.9 L1055.4,657.8 L1055.5,657.6 L1055.5,657.5 L1055.0,657.4 L1054.8,657.3 L1054.8,657.1 L1055.0,656.9 L1054.8,656.7 L1054.7,656.5 L1054.9,656.2 L1055.3,655.8 L1055.5,655.5 L1055.5,655.4 L1054.2,655.2 L1052.0,655.4 L1051.0,656.0 L1050.4,656.8 L1050.3,657.8 L1050.5,658.2 L1050.3,659.0 L1050.0,659.6 L1047.0,661.3 L1044.0,662.7 L1042.4,662.5 L1036.9,660.6 L1032.6,659.9 L1031.9,659.0 L1033.0,655.8 L1036.4,654.4 L1036.4,653.5 L1035.5,652.8 L1035.2,651.8 L1035.2,650.5 L1035.2,647.6 L1035.6,646.6 L1035.4,645.2 L1036.1,645.0 L1037.0,644.7 L1038.3,644.5 L1039.7,643.9 L1041.3,643.6 L1044.5,643.1 L1045.4,642.5 L1045.8,641.8 L1045.6,639.3 L1046.5,638.5 L1049.9,637.5 L1052.9,637.4 L1054.4,637.1 L1055.4,636.6 L1055.8,635.8 L1055.3,633.8 L1053.9,632.4 L1050.9,630.5 L1048.4,629.9 L1045.2,630.0 L1040.9,631.8 L1039.6,632.5 L1037.1,634.6 L1031.6,637.6 L1030.3,638.2 L1027.3,639.0 L1025.5,640.5 L1022.8,641.6 L1022.1,642.5 L1019.4,644.7 L1017.4,646.0 L1015.3,648.1 L1013.3,649.4 L1011.0,650.2 L1009.2,650.6 L1006.2,650.4 L1005.1,650.0 L1004.4,649.4 L1003.0,649.1 L996.2,650.7 L993.2,651.0 L991.2,649.7 L991.8,647.9 L993.8,646.2 L994.0,645.3 L993.6,643.8 L994.7,641.3 L994.5,640.4 L993.1,640.0 L991.0,641.0 L989.9,642.7 L987.0,645.4 L985.9,646.9 L984.0,648.1 L982.7,648.4 L980.9,648.3 L978.5,647.9 L977.6,647.8 L973.1,646.3 L971.0,642.4 L970.7,641.1 L971.2,640.3 L976.9,638.9 L982.1,638.2 L982.6,637.5 L982.5,636.6 L983.4,635.9 L983.6,635.0 L982.8,634.1 L982.3,633.5 L981.8,632.9 L979.5,631.8 L978.8,631.1 L976.3,630.0 L968.7,629.0 L967.4,629.0 L966.0,629.6 L964.9,631.0 L964.7,633.6 L963.6,635.9 L962.4,637.2 L958.7,638.7 L954.4,637.9 L953.3,636.6 L952.6,635.7 L952.5,635.3 L951.6,632.3 L951.6,631.1 L951.5,629.5 L950.7,626.8 L950.3,626.1 L949.7,624.9 L947.7,622.7 L945.8,619.9 L945.8,617.9 L946.4,615.6 L945.9,615.2 L944.6,613.9 L944.8,613.3 L945.7,612.6 L948.6,611.2 L948.2,610.5 L947.3,609.8 L944.5,608.7 L943.9,608.5 L941.1,607.6 L939.5,607.5 L937.4,607.3 L934.2,607.4 L931.9,606.3 L929.2,604.3 L925.0,602.7 L921.8,602.1 L918.2,602.1 L913.4,598.8 L909.4,594.9 L907.6,594.4 L905.8,594.3 L902.8,593.8 L889.0,588.2 L881.0,585.6 L879.6,584.0 L875.7,582.3 L871.6,581.6 L859.4,577.7 L856.7,577.7 L854.7,577.8 L851.2,578.4 L847.4,579.3 L846.4,579.5 L843.0,580.2 L842.1,580.4 L837.5,582.3 L836.0,584.4 L836.0,586.3 L836.3,589.5 L837.4,593.5 L837.5,593.7 L837.7,593.9 L838.1,594.2 L838.8,594.4 L839.8,594.7 L841.2,595.3 L841.8,596.0 L842.3,596.7 L842.1,599.7 L840.3,601.9 L840.0,602.9 L838.9,604.0 L837.9,604.2 L837.5,604.5 L837.6,605.3 L837.2,605.8 L835.1,605.9 L832.9,605.9 L830.5,605.5 L829.4,604.5 L829.1,603.2 L828.2,602.2 L826.8,601.5 L823.3,600.8 L820.3,600.8 L815.8,601.1 L812.7,601.8 L808.3,603.1 L803.0,607.3 L801.0,610.8 L801.8,615.6 L804.0,615.8 L807.4,616.3 L810.3,616.5 L810.8,616.6 L810.8,616.6 L812.5,617.0 L815.3,617.7 L815.4,617.7 L818.6,619.3 L820.9,621.3 L821.4,621.6 L823.5,623.3 L825.1,623.6 L826.9,623.7 L829.2,625.6 L831.7,627.4 L834.0,629.2 L834.5,630.1 L834.5,630.2 L834.5,630.4 L727.8,664.3 L728.1,664.6 L731.0,666.6 L728.2,667.5 L728.0,667.7 L728.0,667.8 L723.4,672.9 L702.9,668.6 L699.0,673.6 L688.6,677.1 L687.0,679.0 L683.7,678.4 L654.8,687.7 L646.3,690.4 L645.1,690.8 L640.6,692.3 L635.2,688.5 L633.0,686.8 L632.7,686.8 L612.6,673.0 L575.6,647.6 L574.3,646.7 L537.3,621.1 L524.7,612.3 L515.8,606.0 L502.8,597.0 L488.4,587.0 L477.2,579.4 L436.2,551.7 L413.3,535.7 L389.7,519.3 L380.8,513.2 L372.4,507.4 L371.8,507.0 L368.4,504.7 L357.9,497.4 L354.2,497.6 L354.2,497.0 L357.0,467.2 L359.7,424.4 L335.7,402.0 L359.7,380.6 L135.0,381.5 L136.4,315.9 L137.6,208.1 L209.9,218.0 L214.3,218.7 L255.6,219.1 L263.1,217.6 L282.8,217.7 L293.1,217.2 L300.6,217.6 L317.3,214.8 L341.5,209.3 L347.0,210.4 L348.1,212.4 L351.2,216.7 L360.0,217.6 L375.6,214.6 L378.8,218.4 L380.4,218.5 L413.5,112.0 L524.8,95.8 L582.7,137.7 L585.3,139.9 L635.4,146.4 L704.8,147.8 L706.9,147.8 L707.2,147.9 L712.5,148.9 L710.2,145.5 L720.2,146.9 L728.4,147.0 L737.6,149.1 L748.3,150.3 L756.8,149.3 L764.4,149.8 L779.7,156.0 L801.7,156.8 L814.1,159.4 L831.3,159.5 L830.0,202.7 L829.9,213.6 L829.6,298.9 L828.2,386.4 L828.2,386.9 L827.6,424.3 L828.3,424.7 L830.1,426.1 L832.0,427.6 L834.7,430.3 L836.6,431.8 L839.6,433.7 L842.5,435.6 L846.9,438.1 L849.4,440.2 L849.7,441.0 L848.8,443.4 L849.1,444.3 L849.5,444.9 L851.8,447.1 L852.3,448.8 L853.0,450.5 L854.0,452.8 L854.4,453.5 L856.5,454.9 L858.1,456.1 L859.0,456.6 L862.7,457.9 L865.2,459.0 L867.1,460.2 L867.6,460.9 L867.6,461.8 L867.1,462.5 L866.9,462.6 L862.6,464.9 L860.5,466.2 L859.2,467.7 L857.8,470.3 L857.4,471.7 L857.2,474.1 L857.0,476.3 L857.0,478.0 L857.0,478.2 L857.2,479.0 L857.3,479.5 L858.4,481.1 L858.7,481.3 L859.6,482.6 L861.7,484.2 L867.4,486.9 L869.5,488.0 L869.9,488.4 L872.2,490.4 L873.2,492.1 L873.7,494.3 L873.5,496.8 L873.0,498.4 L872.3,499.3 L871.9,500.3 L870.8,502.1 L870.1,503.8 L870.6,506.5 L871.5,507.2 L872.7,507.8 L874.3,508.7 L877.8,510.2 L882.6,511.6 L887.1,512.4 L889.6,513.2 L916.7,493.6 L952.8,467.5 L957.7,463.9 L963.1,460.0 L1032.0,480.2 L1043.1,456.9 L1047.4,453.6 L1104.2,471.0 L1140.4,481.8 L1163.8,488.8 L1217.6,467.7 L1253.7,454.1 L1297.5,437.6 L1312.2,432.1 L1330.0,455.7 L1341.0,452.5 L1366.9,445.2 L1384.9,469.7 L1389.3,460.3 L1393.3,447.8 L1439.1,450.5 L1443.3,445.0 L1465.0,448.6 L1435.4,488.9 L1437.5,492.2 L1424.2,510.9 L1421.1,515.3 L1421.1,516.4 L1419.5,516.4 L1415.1,516.6 L1406.4,516.8 L1399.2,517.3 L1392.1,517.6 L1386.6,517.9 L1382.7,518.3 L1375.8,518.6 L1373.5,519.0 L1371.1,518.9 L1370.4,518.0 L1369.3,517.8 L1365.1,518.0 L1362.9,517.7 L1360.6,516.8 L1359.9,516.6 L1358.2,516.2 L1356.8,516.3 L1356.0,516.6 L1355.8,517.3 L1352.1,519.7 L1349.5,521.1 L1348.3,522.7 L1342.3,525.1 L1335.1,527.3 L1330.3,528.8 L1328.8,529.7 L1324.9,530.6 L1323.5,532.2 L1320.5,532.3 L1313.5,535.1 L1312.3,536.7 L1311.6,538.4 L1311.9,540.1 L1310.5,542.9 L1309.3,543.4 L1307.6,544.0 L1307.3,544.9 L1309.9,546.7 L1307.9,547.7 L1308.2,548.5 L1309.1,550.7 L1309.7,553.2 L1311.0,554.5 L1316.2,553.0 L1318.8,553.5 L1321.2,555.3 L1324.6,559.9 L1325.9,560.2 L1325.4,560.7 L1327.5,564.2 L1329.4,564.9 L1329.1,568.8 L1328.5,572.3 L1327.6,575.6 L1323.4,578.7 L1326.6,579.6 L1324.9,581.7 L1322.5,583.5 L1317.3,584.9 L1311.8,585.6 L1305.4,585.1 L1300.5,583.8 L1296.8,582.6 L1297.2,578.1 L1293.9,575.4 L1286.9,569.5 L1283.6,568.8 L1283.3,565.4 L1281.4,564.0 L1280.5,561.1 L1279.2,560.1 L1279.2,557.6 L1278.6,556.5 L1276.3,555.8 L1274.5,556.6 L1272.8,556.2 L1271.4,556.7 L1272.0,558.0 L1273.1,558.4 L1275.5,558.1 L1274.1,559.2 L1271.7,559.1 L1271.1,560.1 L1270.2,560.3 L1268.8,559.0 L1267.8,558.4 L1268.0,557.4 L1265.8,557.0 L1264.5,557.7 L1265.3,558.9 L1260.0,557.6 L1261.6,559.4 L1263.5,560.6 L1264.3,561.4 L1264.4,562.1 L1268.2,563.6 L1269.6,563.2 L1271.4,563.8 L1272.9,564.5 L1274.4,567.2 L1277.2,568.3 L1278.6,570.2 L1282.1,571.6 L1285.9,573.6 L1288.6,576.7 L1290.2,579.1 L1290.7,581.7 L1291.8,585.1 L1295.2,586.9 L1294.4,588.8 L1290.4,591.4 L1289.8,593.0 L1287.5,596.2 L1286.2,598.7 L1283.5,600.1 L1282.9,603.3 L1283.9,603.9 L1283.9,606.1 L1285.6,606.3 L1285.4,607.1 L1283.5,610.1 L1282.0,610.4 L1280.9,610.2 L1274.6,606.2 L1270.4,604.1 L1267.2,603.0 L1258.4,602.3 L1255.2,602.6 L1253.6,602.1 L1250.0,601.7 L1245.2,601.4 L1238.8,601.4 L1235.4,601.2 L1233.6,600.6 L1232.5,600.4 L1229.7,601.1 L1228.3,602.1 L1227.1,602.7 L1225.5,602.4 L1224.7,602.8 L1224.2,603.1 L1243.3,609.0 L1247.4,610.0 L1254.9,610.9 L1258.4,611.6 L1263.0,612.9 L1265.1,614.9 L1272.0,618.1 L1273.0,620.4 L1273.6,622.5 L1273.2,623.9 L1271.6,625.8 L1271.3,627.3 L1271.8,630.6 L1272.6,630.9 L1276.8,632.6 L1279.1,634.0 L1278.6,635.5 L1278.8,636.7 L1278.3,637.7 L1278.4,638.9 L1277.6,641.4 L1278.8,641.9 L1280.1,641.5 L1281.9,640.6 L1285.0,638.1 L1290.0,635.3 L1296.8,632.8 L1302.0,632.4 L1310.1,631.4 L1314.1,629.6 L1314.1,628.9 L1313.7,626.3 L1311.0,624.1 L1309.2,623.6 L1309.2,622.9 L1305.3,618.2 L1301.8,616.3 L1305.0,612.3 L1308.1,612.5 L1307.5,613.8 L1310.2,614.2 L1315.9,614.3 L1320.7,614.6 L1323.1,614.2 L1320.1,611.8 L1321.8,610.8 L1323.0,609.0 L1323.1,606.7 L1325.6,605.6 L1327.8,603.7 L1331.4,603.7 L1333.4,602.4 L1338.5,600.9 L1343.3,600.4 L1347.8,597.9 L1350.4,594.9 L1354.7,592.7 L1358.2,591.3 L1361.7,589.1 L1364.1,586.9 L1366.0,583.5 L1366.7,579.4 L1366.9,576.1 L1367.5,573.0 L1366.6,569.7 L1368.0,567.6 L1372.1,565.7 L1374.6,566.6 L1376.9,567.0 L1383.4,564.2 L1383.3,561.6 L1383.1,558.6 L1384.1,554.5 L1386.7,548.6 L1388.9,547.4 L1389.9,547.4 L1390.1,546.4 L1391.9,546.4 L1392.7,547.3 L1395.4,547.4 L1397.6,549.8 L1402.7,548.8 L1402.5,548.5 L1405.7,548.6 L1410.9,549.8 L1410.9,550.6 L1413.7,550.6 L1414.7,551.6 L1416.7,553.6 L1407.3,561.4 L1406.6,563.3 L1403.0,563.5 L1402.2,562.9 L1398.8,563.1 L1395.7,564.3 L1389.9,565.7 L1389.0,567.3 L1386.7,569.2 L1382.8,570.7 L1382.2,573.0 L1384.6,573.4 L1383.4,574.8 L1386.3,576.8 L1389.9,577.4 L1392.8,576.6 L1394.7,575.7 L1399.8,575.2 L1401.2,576.3 L1398.5,578.7 L1399.9,580.9 L1401.1,580.9 L1399.6,583.1 L1397.3,583.9 L1396.1,585.6 L1389.9,585.4 L1387.2,585.6 L1386.7,586.3 L1382.8,587.0 L1379.5,589.0 L1377.3,590.7 L1376.0,593.4 L1375.1,597.3 L1373.8,602.0 L1368.3,601.8 L1362.0,602.4 L1357.2,603.5 L1355.1,605.5 L1355.0,608.3 L1352.8,611.0 L1351.7,614.2 L1348.2,616.2 L1344.6,617.9 L1340.0,619.0 L1338.7,619.6 L1337.4,620.7 L1336.5,621.5 L1336.1,622.3 L1336.0,623.1 L1336.1,624.1 L1336.8,624.7 L1338.3,626.0 L1339.6,626.7 L1341.3,627.6 L1342.8,628.4 L1344.6,629.2 L1347.5,629.9 L1350.9,630.9 L1353.2,631.2 L1355.1,631.6 L1357.2,632.2 L1358.9,633.1 L1359.6,634.9 L1359.7,636.1 L1360.0,638.2 L1363.8,640.2 L1366.7,641.6 L1369.4,644.3 L1370.5,647.3 L1377.2,654.9 L1378.7,656.6 L1380.6,657.3 L1378.5,658.2 Z" fill="none" stroke="#4a8abf" stroke-width="2" opacity="0.7"/>
  <g font-family="system-ui, -apple-system, sans-serif" font-weight="500" text-anchor="middle" letter-spacing="2">
    <text x="346" y="560" fill="#5a8ab8" font-size="11" opacity="0.6">ATKINS</text>
    <text x="1325" y="584" fill="#5a8ab8" font-size="11" opacity="0.6">CRAIGFLOWER</text>
    <text x="1190" y="440" fill="#5a8ab8" font-size="11" opacity="0.6">BURNSIDE</text>
    <text x="1105" y="703" fill="#5a8ab8" font-size="11" opacity="0.6">HOSPITAL</text>
    <text x="768" y="536" fill="#5a8ab8" font-size="11" opacity="0.6">HELMCKEN</text>
    <text x="464" y="416" fill="#5a8ab8" font-size="11" opacity="0.6">THETIS</text>
    <text x="970" y="775" fill="#5a8ab8" font-size="11" opacity="0.6">HARBOUR</text>
    <text x="768" y="320" fill="#5a8ab8" font-size="11" opacity="0.6">WILFERT</text>
  </g>
  <path d="M143.1,535.7 L345.7,523.8 L514.5,511.8 L683.3,487.8 L852.1,475.9 L1020.9,487.8 L1189.7,511.8 L1358.5,535.7 L1442.9,559.7" fill="none" stroke="#3a6090" stroke-width="2.5" opacity="0.4" stroke-linecap="round"/>
  <path d="M261.3,619.5 L463.9,643.4 L683.3,679.3 L852.1,703.3 L1020.9,727.2 L1189.7,739.2 L1358.5,727.2" fill="none" stroke="#2a4a70" stroke-width="1.5" opacity="0.35" stroke-linecap="round"/>
  <path d="M733.9,284.3 L767.7,380.1 L801.5,475.9 L818.3,583.6 L835.2,679.3 L852.1,775.1" fill="none" stroke="#2a4a70" stroke-width="1.5" opacity="0.35" stroke-linecap="round"/>
  <path d="M430.1,440.0 L598.9,463.9 L767.7,499.8" fill="none" stroke="#1e3858" stroke-width="0.6" opacity="0.3" stroke-linecap="round"/>
  <path d="M936.5,416.0 L1020.9,499.8 L1071.5,583.6" fill="none" stroke="#1e3858" stroke-width="0.6" opacity="0.3" stroke-linecap="round"/>
  <path d="M598.9,619.5 L767.7,643.4 L936.5,631.5" fill="none" stroke="#1e3858" stroke-width="0.6" opacity="0.3" stroke-linecap="round"/>
  <path d="M1105.3,559.7 L1189.7,619.5 L1274.1,655.4" fill="none" stroke="#1e3858" stroke-width="0.6" opacity="0.3" stroke-linecap="round"/>
  <path d="M514.5,344.2 L632.7,380.1 L733.9,440.0" fill="none" stroke="#1e3858" stroke-width="0.6" opacity="0.3" stroke-linecap="round"/>
</svg>